<?xml version="1.0" standalone="no"?>
<!DOCTYPE svg PUBLIC "-//W3C//DTD SVG 1.1//EN" "http://www.w3.org/Graphics/SVG/1.1/DTD/svg11.dtd">
<!--Generator: Xara Designer (www.xara.com), SVG filter version: 5.0.0.2-->
<svg stroke-width="0.501" stroke-linejoin="bevel" fill-rule="evenodd" xmlns:xlink="http://www.w3.org/1999/xlink" xmlns="http://www.w3.org/2000/svg" version="1.1" overflow="visible" width="27pt" height="27pt" viewBox="0 0 27 27">
 <defs>
  <marker id="DefaultArrow2" markerUnits="strokeWidth" viewBox="0 0 1 1" markerWidth="1" markerHeight="1" overflow="visible" orient="auto">
   <!-- REF_ARROW_STRAIGHT (-2) -->
   <g transform="scale(0.0092592592)">
    <!-- 1/108 -->
    <path d="M -9 54 L -9 -54 L 117 0 z"/>
   </g>
  </marker>
  <marker id="DefaultArrow3" markerUnits="strokeWidth" viewBox="0 0 1 1" markerWidth="1" markerHeight="1" overflow="visible" orient="auto">
   <!-- REF_ARROW_ANGLED -->
   <g transform="scale(0.0092592592)">
    <path d="M -27 54 L -9 0 L -27 -54 L 135 0 z"/>
   </g>
  </marker>
  <marker id="DefaultArrow4" markerUnits="strokeWidth" viewBox="0 0 1 1" markerWidth="1" markerHeight="1" overflow="visible" orient="auto">
   <!-- REF_ARROW_ROUNDED -->
   <g transform="scale(0.0092592592)">
    <path d="M -9,0 L -9,-45 C -9,-51.708 2.808,-56.580 9,-54 L 117,-9 C 120.916,-7.369 126.000,-4.242 126,0 C 126,4.242 120.916,7.369 117,9 L 9,54 C 2.808,56.580 -9,51.708 -9,45 z"/>
   </g>
  </marker>
  <marker id="DefaultArrow5" markerUnits="strokeWidth" viewBox="0 0 1 1" markerWidth="1" markerHeight="1" overflow="visible" orient="auto">
   <!-- REF_ARROW_SPOT -->
   <g transform="scale(0.0092592592)">
    <path d="M -54, 0 C -54,29.807 -29.807,54 0,54 C 29.807,54 54,29.807 54,0 C 54,-29.807 29.807,-54 0,-54 C -29.807,-54 -54,-29.807 -54,0 z"/>
   </g>
  </marker>
  <marker id="DefaultArrow6" markerUnits="strokeWidth" viewBox="0 0 1 1" markerWidth="1" markerHeight="1" overflow="visible" orient="auto">
   <!-- REF_ARROW_DIAMOND -->
   <g transform="scale(0.0092592592)">
    <path d="M -63,0 L 0,63 L 63,0 L 0,-63 z"/>
   </g>
  </marker>
  <marker id="DefaultArrow7" markerUnits="strokeWidth" viewBox="0 0 1 1" markerWidth="1" markerHeight="1" overflow="visible" orient="auto">
   <!-- REF_ARROW_FEATHER -->
   <g transform="scale(0.0092592592)">
    <path d="M 18,-54 L 108,-54 L 63,0 L 108,54 L 18, 54 L -36,0 z"/>
   </g>
  </marker>
  <marker id="DefaultArrow8" markerUnits="strokeWidth" viewBox="0 0 1 1" markerWidth="1" markerHeight="1" overflow="visible" orient="auto">
   <!-- REF_ARROW_FEATHER2 -->
   <g transform="scale(0.0092592592)">
    <path d="M -36,0 L 18,-54 L 54,-54 L 18,-18 L 27,-18 L 63,-54 L 99,-54 L 63,-18 L 72,-18 L 108,-54 L 144,-54 L 90,0 L 144,54 L 108,54 L 72,18 L 63,18 L 99,54 L 63,54 L 27,18 L 18,18 L 54,54 L 18,54 z"/>
   </g>
  </marker>
  <marker id="DefaultArrow9" markerUnits="strokeWidth" viewBox="0 0 1 1" markerWidth="1" markerHeight="1" overflow="visible" orient="auto">
   <!-- REF_ARROW_HOLLOWDIAMOND -->
   <g transform="scale(0.0092592592)">
    <path d="M 0,45 L -45,0 L 0, -45 L 45, 0 z M 0, 63 L-63, 0 L 0, -63 L 63, 0 z"/>
   </g>
  </marker>
  <filter id="StainedFilter">
   <feBlend mode="multiply" in2="BackgroundImage" in="SourceGraphic" result="blend"/>
   <feComposite in="blend" in2="SourceAlpha" operator="in" result="comp"/>
  </filter>
  <filter id="BleachFilter">
   <feBlend mode="screen" in2="BackgroundImage" in="SourceGraphic" result="blend"/>
   <feComposite in="blend" in2="SourceAlpha" operator="in" result="comp"/>
  </filter>
  <filter id="InvertTransparencyBitmapFilter">
   <feComponentTransfer>
    <feFuncR type="gamma" amplitude="1.055" exponent=".416666666" offset="-0.055"/>
    <feFuncG type="gamma" amplitude="1.055" exponent=".416666666" offset="-0.055"/>
    <feFuncB type="gamma" amplitude="1.055" exponent=".416666666" offset="-0.055"/>
   </feComponentTransfer>
   <feComponentTransfer>
    <feFuncR type="linear" slope="-1" intercept="1"/>
    <feFuncG type="linear" slope="-1" intercept="1"/>
    <feFuncB type="linear" slope="-1" intercept="1"/>
    <feFuncA type="linear" slope="1" intercept="0"/>
   </feComponentTransfer>
   <feComponentTransfer>
    <feFuncR type="gamma" amplitude="1" exponent="2.4" offset="0"/>
    <feFuncG type="gamma" amplitude="1" exponent="2.4" offset="0"/>
    <feFuncB type="gamma" amplitude="1" exponent="2.4" offset="0"/>
   </feComponentTransfer>
  </filter>
  <linearGradient id="LinearGradient" gradientUnits="userSpaceOnUse" x1="0" y1="0" x2="0" y2="-27.089" gradientTransform="translate(13.499 30.231)">
   <stop offset="0" stop-color="#ffffff"/>
   <stop offset="1" stop-color="#ffe9e6"/>
  </linearGradient>
 </defs>
 <g id="Document" fill="none" stroke="black" font-family="Times New Roman" font-size="16" transform="scale(1 -1)">
  <g id="Spread" transform="translate(0 -27)">
   <g id="Layer 1">
    <g id="Group" stroke-linejoin="miter" stroke-linecap="round" stroke="none">
     <path d="M 13.5,27 C 6.048,27 0,20.952 0,13.5 C 0,6.048 6.048,0 13.5,0 C 20.952,0 27,6.048 27,13.5 C 27,20.952 20.952,27 13.5,27 Z" fill="#c93a28" stroke-width="0.687" marker-start="none" marker-end="none" stroke-miterlimit="79.8403193612775"/>
     <path d="M 13.5,25.875 C 6.669,25.875 1.125,20.331 1.125,13.5 C 1.125,6.669 6.669,1.125 13.5,1.125 C 20.331,1.125 25.875,6.669 25.875,13.5 C 25.875,20.331 20.331,25.875 13.5,25.875 Z" stroke-width="0.687" fill="#c93a28" marker-start="none" marker-end="none" stroke-miterlimit="79.8403193612775"/>
     <path d="M 0.749,13.499 C 0.749,20.537 6.461,26.249 13.499,26.249 C 20.537,26.249 26.249,20.537 26.249,13.499 C 26.249,6.461 20.537,0.749 13.499,0.749 C 6.461,0.749 0.749,6.461 0.749,13.499 Z M 8.279,5.593 L 8.982,5.963 C 9.275,6.117 9.752,6.117 10.045,5.964 L 10.749,5.593 C 11.041,5.44 11.234,5.58 11.179,5.907 L 11.043,6.687 C 10.988,7.014 11.135,7.468 11.372,7.699 L 11.941,8.253 C 12.177,8.484 12.104,8.712 11.777,8.758 L 10.99,8.874 C 10.662,8.92 10.277,9.201 10.131,9.498 L 9.778,10.209 C 9.632,10.505 9.394,10.505 9.248,10.209 L 8.895,9.497 C 8.749,9.2 8.364,8.919 8.036,8.872 L 7.25,8.758 C 6.923,8.711 6.85,8.483 7.086,8.252 L 7.655,7.699 C 7.892,7.468 8.039,7.014 7.984,6.687 L 7.849,5.906 C 7.794,5.579 7.986,5.439 8.279,5.593 Z M 16.235,5.593 L 16.938,5.963 C 17.231,6.117 17.708,6.117 18.001,5.964 L 18.705,5.593 C 18.997,5.44 19.19,5.58 19.135,5.907 L 18.999,6.687 C 18.944,7.014 19.091,7.468 19.328,7.699 L 19.897,8.253 C 20.133,8.484 20.06,8.712 19.733,8.758 L 18.946,8.874 C 18.618,8.92 18.233,9.201 18.087,9.498 L 17.734,10.209 C 17.588,10.505 17.35,10.505 17.204,10.209 L 16.851,9.497 C 16.705,9.2 16.32,8.919 15.992,8.872 L 15.206,8.758 C 14.879,8.711 14.806,8.483 15.042,8.252 L 15.611,7.699 C 15.848,7.468 15.995,7.014 15.94,6.687 L 15.805,5.906 C 15.75,5.579 15.942,5.439 16.235,5.593 Z M 5.811,13.197 L 6.514,13.567 C 6.807,13.721 7.284,13.721 7.577,13.568 L 8.281,13.197 C 8.573,13.044 8.766,13.184 8.711,13.511 L 8.575,14.291 C 8.52,14.618 8.667,15.072 8.904,15.303 L 9.473,15.857 C 9.709,16.088 9.636,16.316 9.309,16.362 L 8.522,16.478 C 8.194,16.524 7.809,16.805 7.663,17.102 L 7.31,17.813 C 7.164,18.109 6.926,18.109 6.78,17.813 L 6.427,17.101 C 6.281,16.804 5.896,16.523 5.568,16.476 L 4.782,16.362 C 4.455,16.315 4.382,16.087 4.618,15.856 L 5.187,15.303 C 5.424,15.072 5.571,14.618 5.516,14.291 L 5.381,13.51 C 5.326,13.183 5.518,13.043 5.811,13.197 Z M 18.718,13.197 L 19.421,13.567 C 19.714,13.721 20.191,13.721 20.484,13.568 L 21.188,13.197 C 21.48,13.044 21.673,13.184 21.618,13.511 L 21.482,14.291 C 21.427,14.618 21.574,15.072 21.811,15.303 L 22.38,15.857 C 22.616,16.088 22.543,16.316 22.216,16.362 L 21.429,16.478 C 21.101,16.524 20.716,16.805 20.57,17.102 L 20.217,17.813 C 20.071,18.109 19.833,18.109 19.687,17.813 L 19.334,17.101 C 19.188,16.804 18.803,16.523 18.475,16.476 L 17.689,16.362 C 17.362,16.315 17.289,16.087 17.525,15.856 L 18.094,15.303 C 18.331,15.072 18.478,14.618 18.423,14.291 L 18.288,13.51 C 18.233,13.183 18.425,13.043 18.718,13.197 Z M 12.227,17.876 L 12.93,18.246 C 13.223,18.4 13.7,18.4 13.993,18.247 L 14.697,17.876 C 14.989,17.723 15.182,17.863 15.127,18.19 L 14.991,18.97 C 14.936,19.297 15.083,19.751 15.32,19.982 L 15.889,20.536 C 16.125,20.767 16.052,20.995 15.725,21.041 L 14.938,21.157 C 14.61,21.203 14.225,21.484 14.079,21.781 L 13.726,22.492 C 13.58,22.788 13.342,22.788 13.196,22.492 L 12.843,21.78 C 12.697,21.483 12.312,21.202 11.984,21.155 L 11.198,21.041 C 10.871,20.994 10.798,20.766 11.034,20.535 L 11.603,19.982 C 11.84,19.751 11.987,19.297 11.932,18.97 L 11.797,18.189 C 11.742,17.862 11.934,17.722 12.227,17.876 Z" stroke-width="0.75" marker-start="none" marker-end="none" stroke-miterlimit="79.8403193612775" fill="url(#LinearGradient)"/>
    </g>
   </g>
  </g>
 </g>
</svg>
