<?xml version="1.0" standalone="no"?>
<!DOCTYPE svg PUBLIC "-//W3C//DTD SVG 1.1//EN" "http://www.w3.org/Graphics/SVG/1.1/DTD/svg11.dtd">
<!--Generator: Xara Designer (www.xara.com), SVG filter version: 5.0.0.2-->
<svg stroke-width="0.501" stroke-linejoin="bevel" fill-rule="evenodd" xmlns:xlink="http://www.w3.org/1999/xlink" xmlns="http://www.w3.org/2000/svg" version="1.1" overflow="visible" width="27pt" height="27pt" viewBox="0 0 27 27">
 <defs>
  <marker id="DefaultArrow2" markerUnits="strokeWidth" viewBox="0 0 1 1" markerWidth="1" markerHeight="1" overflow="visible" orient="auto">
   <!-- REF_ARROW_STRAIGHT (-2) -->
   <g transform="scale(0.0092592592)">
    <!-- 1/108 -->
    <path d="M -9 54 L -9 -54 L 117 0 z"/>
   </g>
  </marker>
  <marker id="DefaultArrow3" markerUnits="strokeWidth" viewBox="0 0 1 1" markerWidth="1" markerHeight="1" overflow="visible" orient="auto">
   <!-- REF_ARROW_ANGLED -->
   <g transform="scale(0.0092592592)">
    <path d="M -27 54 L -9 0 L -27 -54 L 135 0 z"/>
   </g>
  </marker>
  <marker id="DefaultArrow4" markerUnits="strokeWidth" viewBox="0 0 1 1" markerWidth="1" markerHeight="1" overflow="visible" orient="auto">
   <!-- REF_ARROW_ROUNDED -->
   <g transform="scale(0.0092592592)">
    <path d="M -9,0 L -9,-45 C -9,-51.708 2.808,-56.580 9,-54 L 117,-9 C 120.916,-7.369 126.000,-4.242 126,0 C 126,4.242 120.916,7.369 117,9 L 9,54 C 2.808,56.580 -9,51.708 -9,45 z"/>
   </g>
  </marker>
  <marker id="DefaultArrow5" markerUnits="strokeWidth" viewBox="0 0 1 1" markerWidth="1" markerHeight="1" overflow="visible" orient="auto">
   <!-- REF_ARROW_SPOT -->
   <g transform="scale(0.0092592592)">
    <path d="M -54, 0 C -54,29.807 -29.807,54 0,54 C 29.807,54 54,29.807 54,0 C 54,-29.807 29.807,-54 0,-54 C -29.807,-54 -54,-29.807 -54,0 z"/>
   </g>
  </marker>
  <marker id="DefaultArrow6" markerUnits="strokeWidth" viewBox="0 0 1 1" markerWidth="1" markerHeight="1" overflow="visible" orient="auto">
   <!-- REF_ARROW_DIAMOND -->
   <g transform="scale(0.0092592592)">
    <path d="M -63,0 L 0,63 L 63,0 L 0,-63 z"/>
   </g>
  </marker>
  <marker id="DefaultArrow7" markerUnits="strokeWidth" viewBox="0 0 1 1" markerWidth="1" markerHeight="1" overflow="visible" orient="auto">
   <!-- REF_ARROW_FEATHER -->
   <g transform="scale(0.0092592592)">
    <path d="M 18,-54 L 108,-54 L 63,0 L 108,54 L 18, 54 L -36,0 z"/>
   </g>
  </marker>
  <marker id="DefaultArrow8" markerUnits="strokeWidth" viewBox="0 0 1 1" markerWidth="1" markerHeight="1" overflow="visible" orient="auto">
   <!-- REF_ARROW_FEATHER2 -->
   <g transform="scale(0.0092592592)">
    <path d="M -36,0 L 18,-54 L 54,-54 L 18,-18 L 27,-18 L 63,-54 L 99,-54 L 63,-18 L 72,-18 L 108,-54 L 144,-54 L 90,0 L 144,54 L 108,54 L 72,18 L 63,18 L 99,54 L 63,54 L 27,18 L 18,18 L 54,54 L 18,54 z"/>
   </g>
  </marker>
  <marker id="DefaultArrow9" markerUnits="strokeWidth" viewBox="0 0 1 1" markerWidth="1" markerHeight="1" overflow="visible" orient="auto">
   <!-- REF_ARROW_HOLLOWDIAMOND -->
   <g transform="scale(0.0092592592)">
    <path d="M 0,45 L -45,0 L 0, -45 L 45, 0 z M 0, 63 L-63, 0 L 0, -63 L 63, 0 z"/>
   </g>
  </marker>
  <filter id="StainedFilter">
   <feBlend mode="multiply" in2="BackgroundImage" in="SourceGraphic" result="blend"/>
   <feComposite in="blend" in2="SourceAlpha" operator="in" result="comp"/>
  </filter>
  <filter id="BleachFilter">
   <feBlend mode="screen" in2="BackgroundImage" in="SourceGraphic" result="blend"/>
   <feComposite in="blend" in2="SourceAlpha" operator="in" result="comp"/>
  </filter>
  <filter id="InvertTransparencyBitmapFilter">
   <feComponentTransfer>
    <feFuncR type="gamma" amplitude="1.055" exponent=".416666666" offset="-0.055"/>
    <feFuncG type="gamma" amplitude="1.055" exponent=".416666666" offset="-0.055"/>
    <feFuncB type="gamma" amplitude="1.055" exponent=".416666666" offset="-0.055"/>
   </feComponentTransfer>
   <feComponentTransfer>
    <feFuncR type="linear" slope="-1" intercept="1"/>
    <feFuncG type="linear" slope="-1" intercept="1"/>
    <feFuncB type="linear" slope="-1" intercept="1"/>
    <feFuncA type="linear" slope="1" intercept="0"/>
   </feComponentTransfer>
   <feComponentTransfer>
    <feFuncR type="gamma" amplitude="1" exponent="2.4" offset="0"/>
    <feFuncG type="gamma" amplitude="1" exponent="2.4" offset="0"/>
    <feFuncB type="gamma" amplitude="1" exponent="2.4" offset="0"/>
   </feComponentTransfer>
  </filter>
  <linearGradient id="LinearGradient" gradientUnits="userSpaceOnUse" x1="0" y1="0" x2="0" y2="-27.089" gradientTransform="translate(13.5 30.232)">
   <stop offset="0" stop-color="#ffffff"/>
   <stop offset="1" stop-color="#ffe9e6"/>
  </linearGradient>
 </defs>
 <g id="Document" fill="none" stroke="black" font-family="Times New Roman" font-size="16" transform="scale(1 -1)">
  <g id="Spread" transform="translate(0 -27)">
   <g id="Layer 1">
    <g id="Group" stroke-linejoin="miter" stroke-linecap="round" stroke="none">
     <path d="M 13.5,27 C 20.952,27 27,20.952 27,13.5 C 27,6.048 20.952,0 13.5,0 C 6.048,0 0,6.048 0,13.5 C 0,20.952 6.048,27 13.5,27 Z" fill="#c93a28" stroke-width="0.687" marker-start="none" marker-end="none" stroke-miterlimit="79.8403193612775"/>
     <path d="M 13.5,25.875 C 6.669,25.875 1.125,20.331 1.125,13.5 C 1.125,6.669 6.669,1.125 13.5,1.125 C 20.331,1.125 25.875,6.669 25.875,13.5 C 25.875,20.331 20.331,25.875 13.5,25.875 Z" stroke-width="0.687" fill="#c93a28" marker-start="none" marker-end="none" stroke-miterlimit="79.8403193612775"/>
     <path d="M 0.75,13.5 C 0.75,20.538 6.462,26.25 13.5,26.25 C 20.538,26.25 26.25,20.538 26.25,13.5 C 26.25,6.462 20.538,0.75 13.5,0.75 C 6.462,0.75 0.75,6.462 0.75,13.5 Z M 21.019,7.186 L 21.019,18.75 L 22.499,18.75 L 22.499,19.499 L 4.5,19.499 L 4.5,18.75 L 6.02,18.75 L 6.02,10.186 C 6.02,9.946 6.216,9.75 6.456,9.75 L 7.52,9.75 L 7.52,18.75 L 8.27,18.75 L 8.27,8.686 C 8.27,8.446 8.466,8.25 8.706,8.25 L 10.52,8.25 L 10.52,18.75 L 11.27,18.75 L 11.27,7.186 C 11.27,6.946 11.466,6.75 11.706,6.75 L 20.583,6.75 C 20.823,6.75 21.019,6.946 21.019,7.186 Z M 15.656,9.04 L 15.656,9.953 C 14.943,9.986 14.256,10.145 13.595,10.432 L 13.595,12.053 C 13.973,11.861 14.383,11.7 14.826,11.572 C 15.269,11.443 15.658,11.379 15.993,11.379 C 16.27,11.379 16.472,11.412 16.601,11.479 C 16.729,11.546 16.794,11.657 16.794,11.813 C 16.794,11.921 16.747,12.012 16.654,12.087 C 16.562,12.162 16.407,12.246 16.19,12.341 C 15.974,12.435 15.682,12.549 15.314,12.682 C 14.901,12.836 14.567,13.007 14.313,13.198 C 14.059,13.388 13.875,13.601 13.759,13.837 C 13.643,14.073 13.586,14.367 13.586,14.719 C 13.586,15.256 13.758,15.676 14.103,15.978 C 14.448,16.281 14.966,16.468 15.656,16.54 L 15.656,17.209 L 16.667,17.209 L 16.667,16.55 C 17.314,16.514 17.967,16.354 18.625,16.071 L 18.043,14.679 C 17.363,14.985 16.75,15.138 16.203,15.139 C 15.942,15.138 15.759,15.107 15.653,15.043 C 15.548,14.98 15.495,14.886 15.495,14.763 C 15.495,14.655 15.533,14.566 15.61,14.496 C 15.686,14.426 15.819,14.348 16.007,14.262 C 16.196,14.176 16.458,14.076 16.794,13.962 C 17.474,13.721 17.962,13.447 18.258,13.139 C 18.555,12.831 18.703,12.435 18.703,11.95 C 18.703,11.403 18.529,10.959 18.183,10.617 C 17.836,10.275 17.331,10.064 16.667,9.982 L 16.667,9.04 L 15.656,9.04 Z" stroke-width="0.75" marker-start="none" marker-end="none" stroke-miterlimit="79.8403193612775" fill="url(#LinearGradient)"/>
    </g>
   </g>
  </g>
 </g>
</svg>
