<?xml version="1.0" standalone="no"?>
<!DOCTYPE svg PUBLIC "-//W3C//DTD SVG 1.1//EN" "http://www.w3.org/Graphics/SVG/1.1/DTD/svg11.dtd">
<!--Generator: Xara Designer (www.xara.com), SVG filter version: 5.0.0.2-->
<svg stroke-width="0.501" stroke-linejoin="bevel" fill-rule="evenodd" xmlns:xlink="http://www.w3.org/1999/xlink" xmlns="http://www.w3.org/2000/svg" version="1.1" overflow="visible" width="27pt" height="27pt" viewBox="0 0 27 27">
 <defs>
  <marker id="DefaultArrow2" markerUnits="strokeWidth" viewBox="0 0 1 1" markerWidth="1" markerHeight="1" overflow="visible" orient="auto">
   <!-- REF_ARROW_STRAIGHT (-2) -->
   <g transform="scale(0.0092592592)">
    <!-- 1/108 -->
    <path d="M -9 54 L -9 -54 L 117 0 z"/>
   </g>
  </marker>
  <marker id="DefaultArrow3" markerUnits="strokeWidth" viewBox="0 0 1 1" markerWidth="1" markerHeight="1" overflow="visible" orient="auto">
   <!-- REF_ARROW_ANGLED -->
   <g transform="scale(0.0092592592)">
    <path d="M -27 54 L -9 0 L -27 -54 L 135 0 z"/>
   </g>
  </marker>
  <marker id="DefaultArrow4" markerUnits="strokeWidth" viewBox="0 0 1 1" markerWidth="1" markerHeight="1" overflow="visible" orient="auto">
   <!-- REF_ARROW_ROUNDED -->
   <g transform="scale(0.0092592592)">
    <path d="M -9,0 L -9,-45 C -9,-51.708 2.808,-56.580 9,-54 L 117,-9 C 120.916,-7.369 126.000,-4.242 126,0 C 126,4.242 120.916,7.369 117,9 L 9,54 C 2.808,56.580 -9,51.708 -9,45 z"/>
   </g>
  </marker>
  <marker id="DefaultArrow5" markerUnits="strokeWidth" viewBox="0 0 1 1" markerWidth="1" markerHeight="1" overflow="visible" orient="auto">
   <!-- REF_ARROW_SPOT -->
   <g transform="scale(0.0092592592)">
    <path d="M -54, 0 C -54,29.807 -29.807,54 0,54 C 29.807,54 54,29.807 54,0 C 54,-29.807 29.807,-54 0,-54 C -29.807,-54 -54,-29.807 -54,0 z"/>
   </g>
  </marker>
  <marker id="DefaultArrow6" markerUnits="strokeWidth" viewBox="0 0 1 1" markerWidth="1" markerHeight="1" overflow="visible" orient="auto">
   <!-- REF_ARROW_DIAMOND -->
   <g transform="scale(0.0092592592)">
    <path d="M -63,0 L 0,63 L 63,0 L 0,-63 z"/>
   </g>
  </marker>
  <marker id="DefaultArrow7" markerUnits="strokeWidth" viewBox="0 0 1 1" markerWidth="1" markerHeight="1" overflow="visible" orient="auto">
   <!-- REF_ARROW_FEATHER -->
   <g transform="scale(0.0092592592)">
    <path d="M 18,-54 L 108,-54 L 63,0 L 108,54 L 18, 54 L -36,0 z"/>
   </g>
  </marker>
  <marker id="DefaultArrow8" markerUnits="strokeWidth" viewBox="0 0 1 1" markerWidth="1" markerHeight="1" overflow="visible" orient="auto">
   <!-- REF_ARROW_FEATHER2 -->
   <g transform="scale(0.0092592592)">
    <path d="M -36,0 L 18,-54 L 54,-54 L 18,-18 L 27,-18 L 63,-54 L 99,-54 L 63,-18 L 72,-18 L 108,-54 L 144,-54 L 90,0 L 144,54 L 108,54 L 72,18 L 63,18 L 99,54 L 63,54 L 27,18 L 18,18 L 54,54 L 18,54 z"/>
   </g>
  </marker>
  <marker id="DefaultArrow9" markerUnits="strokeWidth" viewBox="0 0 1 1" markerWidth="1" markerHeight="1" overflow="visible" orient="auto">
   <!-- REF_ARROW_HOLLOWDIAMOND -->
   <g transform="scale(0.0092592592)">
    <path d="M 0,45 L -45,0 L 0, -45 L 45, 0 z M 0, 63 L-63, 0 L 0, -63 L 63, 0 z"/>
   </g>
  </marker>
  <filter id="StainedFilter">
   <feBlend mode="multiply" in2="BackgroundImage" in="SourceGraphic" result="blend"/>
   <feComposite in="blend" in2="SourceAlpha" operator="in" result="comp"/>
  </filter>
  <filter id="BleachFilter">
   <feBlend mode="screen" in2="BackgroundImage" in="SourceGraphic" result="blend"/>
   <feComposite in="blend" in2="SourceAlpha" operator="in" result="comp"/>
  </filter>
  <filter id="InvertTransparencyBitmapFilter">
   <feComponentTransfer>
    <feFuncR type="gamma" amplitude="1.055" exponent=".416666666" offset="-0.055"/>
    <feFuncG type="gamma" amplitude="1.055" exponent=".416666666" offset="-0.055"/>
    <feFuncB type="gamma" amplitude="1.055" exponent=".416666666" offset="-0.055"/>
   </feComponentTransfer>
   <feComponentTransfer>
    <feFuncR type="linear" slope="-1" intercept="1"/>
    <feFuncG type="linear" slope="-1" intercept="1"/>
    <feFuncB type="linear" slope="-1" intercept="1"/>
    <feFuncA type="linear" slope="1" intercept="0"/>
   </feComponentTransfer>
   <feComponentTransfer>
    <feFuncR type="gamma" amplitude="1" exponent="2.4" offset="0"/>
    <feFuncG type="gamma" amplitude="1" exponent="2.4" offset="0"/>
    <feFuncB type="gamma" amplitude="1" exponent="2.4" offset="0"/>
   </feComponentTransfer>
  </filter>
  <linearGradient id="LinearGradient" gradientUnits="userSpaceOnUse" x1="0" y1="0" x2="0" y2="-27.09" gradientTransform="translate(13.5 30.233)">
   <stop offset="0" stop-color="#ffffff"/>
   <stop offset="1" stop-color="#ffe9e6"/>
  </linearGradient>
 </defs>
 <g id="Document" fill="none" stroke="black" font-family="Times New Roman" font-size="16" transform="scale(1 -1)">
  <g id="Spread" transform="translate(0 -27)">
   <g id="Layer 1">
    <g id="Group" stroke-linecap="round" stroke="none">
     <path d="M 13.5,27 C 20.952,27 27,20.952 27,13.5 C 27,6.048 20.952,0 13.5,0 C 6.048,0 0,6.048 0,13.5 C 0,20.952 6.048,27 13.5,27 Z" fill="#c93a28" stroke-width="0.687" stroke-linejoin="miter" marker-start="none" marker-end="none" stroke-miterlimit="79.8403193612775"/>
     <path d="M 13.5,25.875 C 20.331,25.875 25.875,20.331 25.875,13.5 C 25.875,6.669 20.331,1.125 13.5,1.125 C 6.669,1.125 1.125,6.669 1.125,13.5 C 1.125,20.331 6.669,25.875 13.5,25.875 Z" stroke-width="0.75" fill="#c93a28" stroke-linejoin="round" marker-start="none" marker-end="none" stroke-miterlimit="79.8403193612775"/>
     <path d="M 0.75,13.5 C 0.75,20.538 6.462,26.25 13.5,26.25 C 20.538,26.25 26.25,20.538 26.25,13.5 C 26.25,6.462 20.538,0.75 13.5,0.75 C 6.462,0.75 0.75,6.462 0.75,13.5 Z M 8.345,3.244 L 16.965,8.602 L 14.676,10.801 L 7.927,3.702 L 8.345,3.244 Z M 17.574,8.999 L 18.426,11.493 L 17.641,12.192 L 15.097,11.328 L 17.574,8.999 Z M 12.814,10.592 C 14.28,12.289 11.121,15.363 12.579,16.825 C 14.212,18.462 16.238,16.165 17.938,16.667 C 18.436,16.814 18.909,17.151 19.184,17.568 C 19.969,18.755 19.36,20.209 18.652,20.975 C 16.765,23.017 13.208,23.681 10.496,23.068 C 7.888,22.478 5.087,20.584 4.259,17.768 C 3.113,13.87 4.997,11.236 7.322,9.836 C 8.835,8.925 11.474,9.043 12.814,10.592 Z M 9.876,11.061 C 9.433,11.403 9.352,12.039 9.693,12.481 C 10.035,12.924 10.671,13.006 11.113,12.664 C 11.556,12.322 11.637,11.685 11.295,11.243 C 10.954,10.8 10.317,10.719 9.876,11.061 Z M 21.657,15.287 C 20.271,13.939 17.291,14.45 18.07,12.681 C 19.183,10.158 22.924,11.84 21.657,15.287 Z M 6.572,12.547 C 6.344,13.058 6.574,13.657 7.084,13.885 C 7.595,14.112 8.194,13.882 8.422,13.371 C 8.649,12.86 8.419,12.261 7.908,12.034 C 7.398,11.806 6.798,12.037 6.572,12.547 Z M 5.661,14.869 C 5.172,15.139 4.994,15.756 5.264,16.245 C 5.535,16.734 6.151,16.912 6.641,16.643 C 7.13,16.372 7.308,15.756 7.038,15.266 C 6.767,14.777 6.151,14.599 5.661,14.869 Z M 6.36,18.324 C 6.144,18.84 6.388,19.434 6.904,19.649 C 7.42,19.864 8.013,19.621 8.229,19.105 C 8.445,18.589 8.201,17.996 7.685,17.78 C 7.169,17.565 6.576,17.808 6.36,18.324 Z M 15.249,19.431 C 14.952,19.904 15.095,20.53 15.569,20.827 C 16.042,21.124 16.668,20.98 16.964,20.507 C 17.261,20.033 17.118,19.408 16.645,19.11 C 16.171,18.813 15.546,18.957 15.249,19.431 Z M 8.896,20.659 C 8.954,21.214 9.454,21.618 10.009,21.558 C 10.565,21.499 10.968,21 10.91,20.444 C 10.851,19.888 10.352,19.485 9.796,19.544 C 9.24,19.603 8.836,20.103 8.896,20.659 Z M 12.474,20.169 C 12.021,20.497 11.919,21.13 12.247,21.583 C 12.574,22.037 13.208,22.138 13.661,21.811 C 14.114,21.483 14.216,20.85 13.889,20.396 C 13.561,19.943 12.928,19.841 12.474,20.169 Z" stroke-linejoin="miter" stroke-width="0.75" marker-start="none" marker-end="none" stroke-miterlimit="79.8403193612775" fill="url(#LinearGradient)"/>
    </g>
   </g>
  </g>
 </g>
</svg>
