<?xml version="1.0" standalone="no"?>
<!DOCTYPE svg PUBLIC "-//W3C//DTD SVG 1.1//EN" "http://www.w3.org/Graphics/SVG/1.1/DTD/svg11.dtd">
<!--Generator: Xara Designer (www.xara.com), SVG filter version: 5.0.0.2-->
<svg stroke-width="0.501" stroke-linejoin="bevel" fill-rule="evenodd" xmlns:xlink="http://www.w3.org/1999/xlink" xmlns="http://www.w3.org/2000/svg" version="1.1" overflow="visible" width="27pt" height="27pt" viewBox="0 0 27 27">
 <defs>
  <marker id="DefaultArrow2" markerUnits="strokeWidth" viewBox="0 0 1 1" markerWidth="1" markerHeight="1" overflow="visible" orient="auto">
   <!-- REF_ARROW_STRAIGHT (-2) -->
   <g transform="scale(0.0092592592)">
    <!-- 1/108 -->
    <path d="M -9 54 L -9 -54 L 117 0 z"/>
   </g>
  </marker>
  <marker id="DefaultArrow3" markerUnits="strokeWidth" viewBox="0 0 1 1" markerWidth="1" markerHeight="1" overflow="visible" orient="auto">
   <!-- REF_ARROW_ANGLED -->
   <g transform="scale(0.0092592592)">
    <path d="M -27 54 L -9 0 L -27 -54 L 135 0 z"/>
   </g>
  </marker>
  <marker id="DefaultArrow4" markerUnits="strokeWidth" viewBox="0 0 1 1" markerWidth="1" markerHeight="1" overflow="visible" orient="auto">
   <!-- REF_ARROW_ROUNDED -->
   <g transform="scale(0.0092592592)">
    <path d="M -9,0 L -9,-45 C -9,-51.708 2.808,-56.580 9,-54 L 117,-9 C 120.916,-7.369 126.000,-4.242 126,0 C 126,4.242 120.916,7.369 117,9 L 9,54 C 2.808,56.580 -9,51.708 -9,45 z"/>
   </g>
  </marker>
  <marker id="DefaultArrow5" markerUnits="strokeWidth" viewBox="0 0 1 1" markerWidth="1" markerHeight="1" overflow="visible" orient="auto">
   <!-- REF_ARROW_SPOT -->
   <g transform="scale(0.0092592592)">
    <path d="M -54, 0 C -54,29.807 -29.807,54 0,54 C 29.807,54 54,29.807 54,0 C 54,-29.807 29.807,-54 0,-54 C -29.807,-54 -54,-29.807 -54,0 z"/>
   </g>
  </marker>
  <marker id="DefaultArrow6" markerUnits="strokeWidth" viewBox="0 0 1 1" markerWidth="1" markerHeight="1" overflow="visible" orient="auto">
   <!-- REF_ARROW_DIAMOND -->
   <g transform="scale(0.0092592592)">
    <path d="M -63,0 L 0,63 L 63,0 L 0,-63 z"/>
   </g>
  </marker>
  <marker id="DefaultArrow7" markerUnits="strokeWidth" viewBox="0 0 1 1" markerWidth="1" markerHeight="1" overflow="visible" orient="auto">
   <!-- REF_ARROW_FEATHER -->
   <g transform="scale(0.0092592592)">
    <path d="M 18,-54 L 108,-54 L 63,0 L 108,54 L 18, 54 L -36,0 z"/>
   </g>
  </marker>
  <marker id="DefaultArrow8" markerUnits="strokeWidth" viewBox="0 0 1 1" markerWidth="1" markerHeight="1" overflow="visible" orient="auto">
   <!-- REF_ARROW_FEATHER2 -->
   <g transform="scale(0.0092592592)">
    <path d="M -36,0 L 18,-54 L 54,-54 L 18,-18 L 27,-18 L 63,-54 L 99,-54 L 63,-18 L 72,-18 L 108,-54 L 144,-54 L 90,0 L 144,54 L 108,54 L 72,18 L 63,18 L 99,54 L 63,54 L 27,18 L 18,18 L 54,54 L 18,54 z"/>
   </g>
  </marker>
  <marker id="DefaultArrow9" markerUnits="strokeWidth" viewBox="0 0 1 1" markerWidth="1" markerHeight="1" overflow="visible" orient="auto">
   <!-- REF_ARROW_HOLLOWDIAMOND -->
   <g transform="scale(0.0092592592)">
    <path d="M 0,45 L -45,0 L 0, -45 L 45, 0 z M 0, 63 L-63, 0 L 0, -63 L 63, 0 z"/>
   </g>
  </marker>
  <filter id="StainedFilter">
   <feBlend mode="multiply" in2="BackgroundImage" in="SourceGraphic" result="blend"/>
   <feComposite in="blend" in2="SourceAlpha" operator="in" result="comp"/>
  </filter>
  <filter id="BleachFilter">
   <feBlend mode="screen" in2="BackgroundImage" in="SourceGraphic" result="blend"/>
   <feComposite in="blend" in2="SourceAlpha" operator="in" result="comp"/>
  </filter>
  <filter id="InvertTransparencyBitmapFilter">
   <feComponentTransfer>
    <feFuncR type="gamma" amplitude="1.055" exponent=".416666666" offset="-0.055"/>
    <feFuncG type="gamma" amplitude="1.055" exponent=".416666666" offset="-0.055"/>
    <feFuncB type="gamma" amplitude="1.055" exponent=".416666666" offset="-0.055"/>
   </feComponentTransfer>
   <feComponentTransfer>
    <feFuncR type="linear" slope="-1" intercept="1"/>
    <feFuncG type="linear" slope="-1" intercept="1"/>
    <feFuncB type="linear" slope="-1" intercept="1"/>
    <feFuncA type="linear" slope="1" intercept="0"/>
   </feComponentTransfer>
   <feComponentTransfer>
    <feFuncR type="gamma" amplitude="1" exponent="2.4" offset="0"/>
    <feFuncG type="gamma" amplitude="1" exponent="2.4" offset="0"/>
    <feFuncB type="gamma" amplitude="1" exponent="2.4" offset="0"/>
   </feComponentTransfer>
  </filter>
  <linearGradient id="LinearGradient" gradientUnits="userSpaceOnUse" x1="0" y1="0" x2="0" y2="-27.089" gradientTransform="translate(13.5 30.232)">
   <stop offset="0" stop-color="#ffffff"/>
   <stop offset="1" stop-color="#ffe9e6"/>
  </linearGradient>
 </defs>
 <g id="Document" fill="none" stroke="black" font-family="Times New Roman" font-size="16" transform="scale(1 -1)">
  <g id="Spread" transform="translate(0 -27)">
   <g id="Layer 1">
    <g id="Group" stroke-linejoin="miter" stroke-linecap="round" stroke="none">
     <path d="M 13.5,27 C 20.952,27 27,20.952 27,13.5 C 27,6.048 20.952,0 13.5,0 C 6.048,0 0,6.048 0,13.5 C 0,20.952 6.048,27 13.5,27 Z" fill="#c93a28" stroke-width="0.687" marker-start="none" marker-end="none" stroke-miterlimit="79.8403193612775"/>
     <path d="M 13.5,25.875 C 20.331,25.875 25.875,20.331 25.875,13.5 C 25.875,6.669 20.331,1.125 13.5,1.125 C 6.669,1.125 1.125,6.669 1.125,13.5 C 1.125,20.331 6.669,25.875 13.5,25.875 Z" stroke-width="0.687" fill="#c93a28" marker-start="none" marker-end="none" stroke-miterlimit="79.8403193612775"/>
     <path d="M 0.75,13.5 C 0.75,20.538 6.462,26.25 13.5,26.25 C 20.538,26.25 26.25,20.538 26.25,13.5 C 26.25,6.462 20.538,0.75 13.5,0.75 C 6.462,0.75 0.75,6.462 0.75,13.5 Z M 18.75,7.498 L 17.851,12.885 C 18.134,12.796 18.436,12.748 18.75,12.748 C 19.52,12.748 20.224,13.039 20.755,13.517 C 20.835,13.504 20.916,13.498 21,13.498 C 21.828,13.498 22.5,14.17 22.5,14.998 C 22.5,15.306 22.406,15.593 22.246,15.832 C 22.83,16.037 23.25,16.593 23.25,17.248 C 23.25,18.076 22.578,18.748 21.75,18.748 C 21.737,18.748 21.724,18.747 21.712,18.747 C 21.666,18.97 21.581,19.179 21.463,19.366 C 21.643,19.614 21.75,19.918 21.75,20.248 C 21.75,21.076 21.078,21.748 20.25,21.748 C 20.074,21.748 19.906,21.717 19.749,21.662 C 19.336,22.171 18.706,22.498 18,22.498 C 17.933,22.498 17.868,22.495 17.804,22.489 C 17.545,22.942 17.058,23.248 16.5,23.248 C 15.941,23.248 15.454,22.942 15.195,22.489 C 14.444,22.418 13.821,21.901 13.593,21.208 C 13.487,21.231 13.378,21.244 13.266,21.244 C 12.438,21.244 11.766,20.572 11.766,19.744 C 11.766,19.309 11.951,18.917 12.247,18.643 C 11.516,18.387 10.992,17.69 10.992,16.873 C 10.992,16.034 11.542,15.324 12.302,15.084 C 12.553,13.897 13.608,13.006 14.87,13.006 C 15.257,13.006 15.625,13.09 15.957,13.241 L 15,7.498 L 18.75,7.498 Z M 5.211,7.706 L 5.891,9.748 L 10.609,9.748 L 11.29,7.706 C 11.383,7.521 11.608,7.446 11.793,7.538 C 11.978,7.631 12.053,7.856 11.961,8.041 L 10.642,11.998 L 11.625,11.998 C 11.831,11.998 12,12.166 12,12.373 C 12,12.579 11.831,12.748 11.625,12.748 L 4.875,12.748 C 4.668,12.748 4.5,12.579 4.5,12.373 C 4.5,12.166 4.668,11.998 4.875,11.998 L 5.859,11.998 L 4.54,8.041 C 4.448,7.856 4.523,7.631 4.708,7.538 C 4.893,7.446 5.118,7.521 5.211,7.706 Z M 6.141,10.498 L 6.641,11.998 L 9.859,11.998 L 10.359,10.498 L 6.141,10.498 Z" stroke-width="0.75" marker-start="none" marker-end="none" stroke-miterlimit="79.8403193612775" fill="url(#LinearGradient)"/>
    </g>
   </g>
  </g>
 </g>
</svg>
