<?xml version="1.0" standalone="no"?>
<!DOCTYPE svg PUBLIC "-//W3C//DTD SVG 1.1//EN" "http://www.w3.org/Graphics/SVG/1.1/DTD/svg11.dtd">
<!--Generator: Xara Designer (www.xara.com), SVG filter version: 5.0.0.2-->
<svg stroke-width="0.501" stroke-linejoin="bevel" fill-rule="evenodd" xmlns:xlink="http://www.w3.org/1999/xlink" xmlns="http://www.w3.org/2000/svg" version="1.1" overflow="visible" width="27pt" height="27pt" viewBox="0 0 27 27">
 <defs>
  <marker id="DefaultArrow2" markerUnits="strokeWidth" viewBox="0 0 1 1" markerWidth="1" markerHeight="1" overflow="visible" orient="auto">
   <!-- REF_ARROW_STRAIGHT (-2) -->
   <g transform="scale(0.0092592592)">
    <!-- 1/108 -->
    <path d="M -9 54 L -9 -54 L 117 0 z"/>
   </g>
  </marker>
  <marker id="DefaultArrow3" markerUnits="strokeWidth" viewBox="0 0 1 1" markerWidth="1" markerHeight="1" overflow="visible" orient="auto">
   <!-- REF_ARROW_ANGLED -->
   <g transform="scale(0.0092592592)">
    <path d="M -27 54 L -9 0 L -27 -54 L 135 0 z"/>
   </g>
  </marker>
  <marker id="DefaultArrow4" markerUnits="strokeWidth" viewBox="0 0 1 1" markerWidth="1" markerHeight="1" overflow="visible" orient="auto">
   <!-- REF_ARROW_ROUNDED -->
   <g transform="scale(0.0092592592)">
    <path d="M -9,0 L -9,-45 C -9,-51.708 2.808,-56.580 9,-54 L 117,-9 C 120.916,-7.369 126.000,-4.242 126,0 C 126,4.242 120.916,7.369 117,9 L 9,54 C 2.808,56.580 -9,51.708 -9,45 z"/>
   </g>
  </marker>
  <marker id="DefaultArrow5" markerUnits="strokeWidth" viewBox="0 0 1 1" markerWidth="1" markerHeight="1" overflow="visible" orient="auto">
   <!-- REF_ARROW_SPOT -->
   <g transform="scale(0.0092592592)">
    <path d="M -54, 0 C -54,29.807 -29.807,54 0,54 C 29.807,54 54,29.807 54,0 C 54,-29.807 29.807,-54 0,-54 C -29.807,-54 -54,-29.807 -54,0 z"/>
   </g>
  </marker>
  <marker id="DefaultArrow6" markerUnits="strokeWidth" viewBox="0 0 1 1" markerWidth="1" markerHeight="1" overflow="visible" orient="auto">
   <!-- REF_ARROW_DIAMOND -->
   <g transform="scale(0.0092592592)">
    <path d="M -63,0 L 0,63 L 63,0 L 0,-63 z"/>
   </g>
  </marker>
  <marker id="DefaultArrow7" markerUnits="strokeWidth" viewBox="0 0 1 1" markerWidth="1" markerHeight="1" overflow="visible" orient="auto">
   <!-- REF_ARROW_FEATHER -->
   <g transform="scale(0.0092592592)">
    <path d="M 18,-54 L 108,-54 L 63,0 L 108,54 L 18, 54 L -36,0 z"/>
   </g>
  </marker>
  <marker id="DefaultArrow8" markerUnits="strokeWidth" viewBox="0 0 1 1" markerWidth="1" markerHeight="1" overflow="visible" orient="auto">
   <!-- REF_ARROW_FEATHER2 -->
   <g transform="scale(0.0092592592)">
    <path d="M -36,0 L 18,-54 L 54,-54 L 18,-18 L 27,-18 L 63,-54 L 99,-54 L 63,-18 L 72,-18 L 108,-54 L 144,-54 L 90,0 L 144,54 L 108,54 L 72,18 L 63,18 L 99,54 L 63,54 L 27,18 L 18,18 L 54,54 L 18,54 z"/>
   </g>
  </marker>
  <marker id="DefaultArrow9" markerUnits="strokeWidth" viewBox="0 0 1 1" markerWidth="1" markerHeight="1" overflow="visible" orient="auto">
   <!-- REF_ARROW_HOLLOWDIAMOND -->
   <g transform="scale(0.0092592592)">
    <path d="M 0,45 L -45,0 L 0, -45 L 45, 0 z M 0, 63 L-63, 0 L 0, -63 L 63, 0 z"/>
   </g>
  </marker>
  <filter id="StainedFilter">
   <feBlend mode="multiply" in2="BackgroundImage" in="SourceGraphic" result="blend"/>
   <feComposite in="blend" in2="SourceAlpha" operator="in" result="comp"/>
  </filter>
  <filter id="BleachFilter">
   <feBlend mode="screen" in2="BackgroundImage" in="SourceGraphic" result="blend"/>
   <feComposite in="blend" in2="SourceAlpha" operator="in" result="comp"/>
  </filter>
  <filter id="InvertTransparencyBitmapFilter">
   <feComponentTransfer>
    <feFuncR type="gamma" amplitude="1.055" exponent=".416666666" offset="-0.055"/>
    <feFuncG type="gamma" amplitude="1.055" exponent=".416666666" offset="-0.055"/>
    <feFuncB type="gamma" amplitude="1.055" exponent=".416666666" offset="-0.055"/>
   </feComponentTransfer>
   <feComponentTransfer>
    <feFuncR type="linear" slope="-1" intercept="1"/>
    <feFuncG type="linear" slope="-1" intercept="1"/>
    <feFuncB type="linear" slope="-1" intercept="1"/>
    <feFuncA type="linear" slope="1" intercept="0"/>
   </feComponentTransfer>
   <feComponentTransfer>
    <feFuncR type="gamma" amplitude="1" exponent="2.4" offset="0"/>
    <feFuncG type="gamma" amplitude="1" exponent="2.4" offset="0"/>
    <feFuncB type="gamma" amplitude="1" exponent="2.4" offset="0"/>
   </feComponentTransfer>
  </filter>
  <linearGradient id="LinearGradient" gradientUnits="userSpaceOnUse" x1="0" y1="0" x2="0" y2="-27.089" gradientTransform="translate(13.5 30.232)">
   <stop offset="0" stop-color="#ffffff"/>
   <stop offset="1" stop-color="#e1e9f6"/>
  </linearGradient>
 </defs>
 <g id="Document" fill="none" stroke="black" font-family="Times New Roman" font-size="16" transform="scale(1 -1)">
  <g id="Spread" transform="translate(0 -27)">
   <g id="Layer 1">
    <g id="Group" stroke-linejoin="miter" stroke-linecap="round" stroke="none">
     <path d="M 13.5,27 C 20.952,27 27,20.952 27,13.5 C 27,6.048 20.952,0 13.5,0 C 6.048,0 0,6.048 0,13.5 C 0,20.952 6.048,27 13.5,27 Z" stroke-width="0.751" fill="#295094" marker-start="none" marker-end="none" stroke-miterlimit="79.8403193612775"/>
     <path d="M 0.75,13.5 C 0.75,20.538 6.462,26.25 13.5,26.25 C 20.538,26.25 26.25,20.538 26.25,13.5 C 26.25,6.462 20.538,0.75 13.5,0.75 C 6.462,0.75 0.75,6.462 0.75,13.5 Z M 14.999,6.749 L 15.186,11.248 L 16.91,11.248 L 16.911,11.247 C 16.958,11.104 17.113,11.027 17.256,11.073 C 17.341,11.101 17.403,11.168 17.429,11.248 L 18.375,11.248 L 18.375,9 C 18.375,8.501 19.874,8.501 19.874,9 L 19.874,11.248 L 19.875,11.248 L 19.875,10.5 C 19.875,10.001 21.374,10.001 21.374,10.5 L 21.374,11.248 L 22.125,11.248 C 22.375,11.248 22.375,12 22.125,12 L 21.374,12 L 21.374,12.749 C 21.374,13.248 19.875,13.248 19.875,12.749 L 19.875,12 L 19.874,12 L 19.874,14.249 C 19.874,14.748 18.375,14.748 18.375,14.249 L 18.375,12 L 17.302,12 L 17.119,12.843 L 16.779,14.257 L 16.408,15.661 L 16.007,17.055 L 15.907,17.25 L 15.75,17.406 L 15.553,17.506 L 15.337,17.54 L 15.33,17.536 L 15.331,17.551 L 14.414,17.567 L 13.498,17.571 L 12.581,17.562 L 11.664,17.541 L 11.448,17.507 L 11.251,17.407 L 11.095,17.252 L 10.994,17.056 L 10.594,15.663 L 10.222,14.258 L 9.882,12.844 L 9.698,12 L 8.625,12 L 8.625,14.249 C 8.625,14.748 7.126,14.748 7.126,14.249 L 7.126,12 L 7.125,12 L 7.125,12.749 C 7.125,13.248 5.626,13.248 5.626,12.749 L 5.626,12 L 4.875,12 C 4.625,12 4.625,11.248 4.875,11.248 L 5.626,11.248 L 5.626,10.5 C 5.626,10.001 7.125,10.001 7.125,10.5 L 7.125,11.248 L 7.126,11.248 L 7.126,9 C 7.126,8.501 8.625,8.501 8.625,9 L 8.625,11.248 L 9.571,11.248 C 9.597,11.168 9.659,11.102 9.745,11.074 C 9.888,11.028 10.043,11.105 10.09,11.248 L 11.813,11.248 L 11.999,6.75 L 14.999,6.749 Z M 11.664,14.873 L 11.782,12 L 10.435,12 C 10.865,12.948 11.275,13.907 11.664,14.873 Z M 15.217,12 L 15.337,14.872 C 15.724,13.906 16.134,12.948 16.564,12 L 15.217,12 Z M 16.123,20.5 C 16.123,21.949 14.947,23.125 13.498,23.125 C 12.049,23.125 10.873,21.949 10.873,20.5 C 10.873,19.051 12.049,17.875 13.498,17.875 C 14.947,17.875 16.123,19.051 16.123,20.5 Z" stroke-width="0.708" marker-start="none" marker-end="none" stroke-miterlimit="79.8403193612775" fill="url(#LinearGradient)"/>
    </g>
   </g>
  </g>
 </g>
</svg>
