<?xml version="1.0" standalone="no"?>
<!DOCTYPE svg PUBLIC "-//W3C//DTD SVG 1.1//EN" "http://www.w3.org/Graphics/SVG/1.1/DTD/svg11.dtd">
<!--Generator: Xara Designer (www.xara.com), SVG filter version: 4.0.0.1-->
<svg stroke-width="0.501" stroke-linejoin="bevel" fill-rule="evenodd" xmlns:xlink="http://www.w3.org/1999/xlink" xmlns="http://www.w3.org/2000/svg" version="1.1" overflow="visible" width="27pt" height="27pt" viewBox="0 0 27 27">
 <defs>
  <marker id="DefaultArrow2" markerUnits="strokeWidth" viewBox="0 0 1 1" markerWidth="1" markerHeight="1" overflow="visible" orient="auto">
   <!-- REF_ARROW_STRAIGHT (-2) -->
   <g transform="scale(0.0092592592)">
    <!-- 1/108 -->
    <path d="M -9 54 L -9 -54 L 117 0 z"/>
   </g>
  </marker>
  <marker id="DefaultArrow3" markerUnits="strokeWidth" viewBox="0 0 1 1" markerWidth="1" markerHeight="1" overflow="visible" orient="auto">
   <!-- REF_ARROW_ANGLED -->
   <g transform="scale(0.0092592592)">
    <path d="M -27 54 L -9 0 L -27 -54 L 135 0 z"/>
   </g>
  </marker>
  <marker id="DefaultArrow4" markerUnits="strokeWidth" viewBox="0 0 1 1" markerWidth="1" markerHeight="1" overflow="visible" orient="auto">
   <!-- REF_ARROW_ROUNDED -->
   <g transform="scale(0.0092592592)">
    <path d="M -9,0 L -9,-45 C -9,-51.708 2.808,-56.580 9,-54 L 117,-9 C 120.916,-7.369 126.000,-4.242 126,0 C 126,4.242 120.916,7.369 117,9 L 9,54 C 2.808,56.580 -9,51.708 -9,45 z"/>
   </g>
  </marker>
  <marker id="DefaultArrow5" markerUnits="strokeWidth" viewBox="0 0 1 1" markerWidth="1" markerHeight="1" overflow="visible" orient="auto">
   <!-- REF_ARROW_SPOT -->
   <g transform="scale(0.0092592592)">
    <path d="M -54, 0 C -54,29.807 -29.807,54 0,54 C 29.807,54 54,29.807 54,0 C 54,-29.807 29.807,-54 0,-54 C -29.807,-54 -54,-29.807 -54,0 z"/>
   </g>
  </marker>
  <marker id="DefaultArrow6" markerUnits="strokeWidth" viewBox="0 0 1 1" markerWidth="1" markerHeight="1" overflow="visible" orient="auto">
   <!-- REF_ARROW_DIAMOND -->
   <g transform="scale(0.0092592592)">
    <path d="M -63,0 L 0,63 L 63,0 L 0,-63 z"/>
   </g>
  </marker>
  <marker id="DefaultArrow7" markerUnits="strokeWidth" viewBox="0 0 1 1" markerWidth="1" markerHeight="1" overflow="visible" orient="auto">
   <!-- REF_ARROW_FEATHER -->
   <g transform="scale(0.0092592592)">
    <path d="M 18,-54 L 108,-54 L 63,0 L 108,54 L 18, 54 L -36,0 z"/>
   </g>
  </marker>
  <marker id="DefaultArrow8" markerUnits="strokeWidth" viewBox="0 0 1 1" markerWidth="1" markerHeight="1" overflow="visible" orient="auto">
   <!-- REF_ARROW_FEATHER2 -->
   <g transform="scale(0.0092592592)">
    <path d="M -36,0 L 18,-54 L 54,-54 L 18,-18 L 27,-18 L 63,-54 L 99,-54 L 63,-18 L 72,-18 L 108,-54 L 144,-54 L 90,0 L 144,54 L 108,54 L 72,18 L 63,18 L 99,54 L 63,54 L 27,18 L 18,18 L 54,54 L 18,54 z"/>
   </g>
  </marker>
  <marker id="DefaultArrow9" markerUnits="strokeWidth" viewBox="0 0 1 1" markerWidth="1" markerHeight="1" overflow="visible" orient="auto">
   <!-- REF_ARROW_HOLLOWDIAMOND -->
   <g transform="scale(0.0092592592)">
    <path d="M 0,45 L -45,0 L 0, -45 L 45, 0 z M 0, 63 L-63, 0 L 0, -63 L 63, 0 z"/>
   </g>
  </marker>
  <filter id="StainedFilter">
   <feBlend mode="multiply" in2="BackgroundImage" in="SourceGraphic" result="blend"/>
   <feComposite in="blend" in2="SourceAlpha" operator="in" result="comp"/>
  </filter>
  <filter id="BleachFilter">
   <feBlend mode="screen" in2="BackgroundImage" in="SourceGraphic" result="blend"/>
   <feComposite in="blend" in2="SourceAlpha" operator="in" result="comp"/>
  </filter>
  <filter id="InvertTransparencyBitmapFilter">
   <feComponentTransfer>
    <feFuncR type="gamma" amplitude="1.055" exponent=".416666666" offset="-0.055"/>
    <feFuncG type="gamma" amplitude="1.055" exponent=".416666666" offset="-0.055"/>
    <feFuncB type="gamma" amplitude="1.055" exponent=".416666666" offset="-0.055"/>
   </feComponentTransfer>
   <feComponentTransfer>
    <feFuncR type="linear" slope="-1" intercept="1"/>
    <feFuncG type="linear" slope="-1" intercept="1"/>
    <feFuncB type="linear" slope="-1" intercept="1"/>
    <feFuncA type="linear" slope="1" intercept="0"/>
   </feComponentTransfer>
   <feComponentTransfer>
    <feFuncR type="gamma" amplitude="1" exponent="2.4" offset="0"/>
    <feFuncG type="gamma" amplitude="1" exponent="2.4" offset="0"/>
    <feFuncB type="gamma" amplitude="1" exponent="2.4" offset="0"/>
   </feComponentTransfer>
  </filter>
  <linearGradient id="LinearGradient" gradientUnits="userSpaceOnUse" x1="0" y1="0" x2="0" y2="-27.09" gradientTransform="translate(13.5 30.235)">
   <stop offset="0" stop-color="#ffffff"/>
   <stop offset="1" stop-color="#e1e9f6"/>
  </linearGradient>
 </defs>
 <g id="Document" fill="none" stroke="black" font-family="Times New Roman" font-size="16" transform="scale(1 -1)">
  <g id="Spread" transform="translate(0 -27)">
   <g id="Layer 1">
    <path d="M 13.5,27 C 20.952,27 27,20.952 27,13.5 C 27,6.048 20.952,0 13.5,0 C 6.048,0 0,6.048 0,13.5 C 0,20.952 6.048,27 13.5,27 Z" stroke-linecap="round" stroke="none" stroke-width="0.75" fill="#295094" stroke-linejoin="round" marker-start="none" marker-end="none" stroke-miterlimit="79.8403193612775"/>
    <path d="M 13.5,26.252 C 20.538,26.252 26.25,20.54 26.25,13.502 C 26.25,6.464 20.538,0.752 13.5,0.752 C 6.462,0.752 0.75,6.464 0.75,13.502 C 0.75,20.54 6.462,26.252 13.5,26.252 Z" stroke-linecap="round" stroke="none" stroke-width="0.75" stroke-linejoin="miter" marker-start="none" marker-end="none" stroke-miterlimit="79.8403193612775" fill="url(#LinearGradient)"/>
    <path d="M 6,6.75 L 6,13.396 C 5.598,12.396 5.168,11.406 4.712,10.43 C 4.674,10.313 4.547,10.25 4.43,10.288 C 4.313,10.326 4.25,10.453 4.288,10.57 L 4.542,11.736 L 4.82,12.893 L 5.124,14.042 L 5.452,15.182 L 5.534,15.342 L 5.662,15.469 L 5.823,15.551 L 6,15.579 L 6.75,15.596 L 7.5,15.603 L 8.25,15.6 L 9,15.587 L 9.16,15.564 L 9.308,15.499 L 9.433,15.395 L 9.525,15.262 L 10.044,14.116 L 10.54,12.957 L 11.008,11.785 L 11.26,11.113 C 11.474,11.626 11.728,12.173 11.994,12.603 C 12.143,12.844 12.224,13.115 12.474,13.266 C 12.665,13.381 13.419,13.359 13.65,13.352 C 13.95,13.344 14.497,13.41 14.699,13.118 C 15.09,12.553 15.446,11.797 15.739,11.108 L 15.991,11.785 L 16.46,12.957 L 16.955,14.116 L 17.475,15.262 L 17.567,15.395 L 17.692,15.499 L 17.84,15.564 L 18,15.587 L 18.75,15.6 L 19.5,15.603 L 20.25,15.596 L 21,15.579 L 21.177,15.551 L 21.338,15.469 L 21.465,15.342 L 21.548,15.182 L 21.876,14.042 L 22.18,12.893 L 22.458,11.736 L 22.717,10.572 C 22.756,10.453 22.691,10.322 22.572,10.283 C 22.453,10.244 22.322,10.309 22.283,10.428 C 21.937,11.175 21.604,11.928 21.287,12.687 L 21.749,9 L 20.249,9 L 20.249,6.75 L 18.75,6.75 L 18.75,9 L 17.25,9 L 17.804,13.435 C 17.217,12.406 16.6,11.395 15.952,10.404 C 15.939,10.366 15.912,10.333 15.877,10.31 C 15.773,10.24 15.63,10.269 15.56,10.373 C 15.237,10.691 14.924,11.02 14.624,11.36 L 14.625,6.75 L 12.374,6.75 L 12.374,11.361 C 12.077,11.025 11.768,10.7 11.449,10.389 C 11.426,10.349 11.394,10.317 11.352,10.296 C 11.24,10.24 11.102,10.286 11.046,10.398 C 10.357,11.454 9.702,12.534 9.082,13.632 L 8.999,13.783 L 8.999,6.75 L 6,6.75 Z M 12,15 C 12,15.828 12.672,16.5 13.5,16.5 C 14.328,16.5 15,15.828 15,15 C 15,14.172 14.328,13.5 13.5,13.5 C 12.672,13.5 12,14.172 12,15 Z M 5.25,18 C 5.25,19.242 6.258,20.25 7.5,20.25 C 8.742,20.25 9.75,19.242 9.75,18 C 9.75,16.758 8.742,15.75 7.5,15.75 C 6.258,15.75 5.25,16.758 5.25,18 Z M 17.25,18 C 17.25,19.242 18.258,20.25 19.5,20.25 C 20.742,20.25 21.75,19.242 21.75,18 C 21.75,16.758 20.742,15.75 19.5,15.75 C 18.258,15.75 17.25,16.758 17.25,18 Z" fill="#295094" stroke-linejoin="round" stroke-linecap="round" stroke-width="0.125" stroke="none" marker-start="none" marker-end="none" stroke-miterlimit="79.8403193612775"/>
   </g>
  </g>
 </g>
</svg>
