<?xml version="1.0" standalone="no"?>
<!DOCTYPE svg PUBLIC "-//W3C//DTD SVG 1.1//EN" "http://www.w3.org/Graphics/SVG/1.1/DTD/svg11.dtd">
<!--Generator: Xara Designer (www.xara.com), SVG filter version: 5.0.0.2-->
<svg stroke-width="0.501" stroke-linejoin="bevel" fill-rule="evenodd" xmlns:xlink="http://www.w3.org/1999/xlink" xmlns="http://www.w3.org/2000/svg" version="1.1" overflow="visible" width="27pt" height="27pt" viewBox="0 0 27 27">
 <defs>
  <marker id="DefaultArrow2" markerUnits="strokeWidth" viewBox="0 0 1 1" markerWidth="1" markerHeight="1" overflow="visible" orient="auto">
   <!-- REF_ARROW_STRAIGHT (-2) -->
   <g transform="scale(0.0092592592)">
    <!-- 1/108 -->
    <path d="M -9 54 L -9 -54 L 117 0 z"/>
   </g>
  </marker>
  <marker id="DefaultArrow3" markerUnits="strokeWidth" viewBox="0 0 1 1" markerWidth="1" markerHeight="1" overflow="visible" orient="auto">
   <!-- REF_ARROW_ANGLED -->
   <g transform="scale(0.0092592592)">
    <path d="M -27 54 L -9 0 L -27 -54 L 135 0 z"/>
   </g>
  </marker>
  <marker id="DefaultArrow4" markerUnits="strokeWidth" viewBox="0 0 1 1" markerWidth="1" markerHeight="1" overflow="visible" orient="auto">
   <!-- REF_ARROW_ROUNDED -->
   <g transform="scale(0.0092592592)">
    <path d="M -9,0 L -9,-45 C -9,-51.708 2.808,-56.580 9,-54 L 117,-9 C 120.916,-7.369 126.000,-4.242 126,0 C 126,4.242 120.916,7.369 117,9 L 9,54 C 2.808,56.580 -9,51.708 -9,45 z"/>
   </g>
  </marker>
  <marker id="DefaultArrow5" markerUnits="strokeWidth" viewBox="0 0 1 1" markerWidth="1" markerHeight="1" overflow="visible" orient="auto">
   <!-- REF_ARROW_SPOT -->
   <g transform="scale(0.0092592592)">
    <path d="M -54, 0 C -54,29.807 -29.807,54 0,54 C 29.807,54 54,29.807 54,0 C 54,-29.807 29.807,-54 0,-54 C -29.807,-54 -54,-29.807 -54,0 z"/>
   </g>
  </marker>
  <marker id="DefaultArrow6" markerUnits="strokeWidth" viewBox="0 0 1 1" markerWidth="1" markerHeight="1" overflow="visible" orient="auto">
   <!-- REF_ARROW_DIAMOND -->
   <g transform="scale(0.0092592592)">
    <path d="M -63,0 L 0,63 L 63,0 L 0,-63 z"/>
   </g>
  </marker>
  <marker id="DefaultArrow7" markerUnits="strokeWidth" viewBox="0 0 1 1" markerWidth="1" markerHeight="1" overflow="visible" orient="auto">
   <!-- REF_ARROW_FEATHER -->
   <g transform="scale(0.0092592592)">
    <path d="M 18,-54 L 108,-54 L 63,0 L 108,54 L 18, 54 L -36,0 z"/>
   </g>
  </marker>
  <marker id="DefaultArrow8" markerUnits="strokeWidth" viewBox="0 0 1 1" markerWidth="1" markerHeight="1" overflow="visible" orient="auto">
   <!-- REF_ARROW_FEATHER2 -->
   <g transform="scale(0.0092592592)">
    <path d="M -36,0 L 18,-54 L 54,-54 L 18,-18 L 27,-18 L 63,-54 L 99,-54 L 63,-18 L 72,-18 L 108,-54 L 144,-54 L 90,0 L 144,54 L 108,54 L 72,18 L 63,18 L 99,54 L 63,54 L 27,18 L 18,18 L 54,54 L 18,54 z"/>
   </g>
  </marker>
  <marker id="DefaultArrow9" markerUnits="strokeWidth" viewBox="0 0 1 1" markerWidth="1" markerHeight="1" overflow="visible" orient="auto">
   <!-- REF_ARROW_HOLLOWDIAMOND -->
   <g transform="scale(0.0092592592)">
    <path d="M 0,45 L -45,0 L 0, -45 L 45, 0 z M 0, 63 L-63, 0 L 0, -63 L 63, 0 z"/>
   </g>
  </marker>
  <filter id="StainedFilter">
   <feBlend mode="multiply" in2="BackgroundImage" in="SourceGraphic" result="blend"/>
   <feComposite in="blend" in2="SourceAlpha" operator="in" result="comp"/>
  </filter>
  <filter id="BleachFilter">
   <feBlend mode="screen" in2="BackgroundImage" in="SourceGraphic" result="blend"/>
   <feComposite in="blend" in2="SourceAlpha" operator="in" result="comp"/>
  </filter>
  <filter id="InvertTransparencyBitmapFilter">
   <feComponentTransfer>
    <feFuncR type="gamma" amplitude="1.055" exponent=".416666666" offset="-0.055"/>
    <feFuncG type="gamma" amplitude="1.055" exponent=".416666666" offset="-0.055"/>
    <feFuncB type="gamma" amplitude="1.055" exponent=".416666666" offset="-0.055"/>
   </feComponentTransfer>
   <feComponentTransfer>
    <feFuncR type="linear" slope="-1" intercept="1"/>
    <feFuncG type="linear" slope="-1" intercept="1"/>
    <feFuncB type="linear" slope="-1" intercept="1"/>
    <feFuncA type="linear" slope="1" intercept="0"/>
   </feComponentTransfer>
   <feComponentTransfer>
    <feFuncR type="gamma" amplitude="1" exponent="2.4" offset="0"/>
    <feFuncG type="gamma" amplitude="1" exponent="2.4" offset="0"/>
    <feFuncB type="gamma" amplitude="1" exponent="2.4" offset="0"/>
   </feComponentTransfer>
  </filter>
  <linearGradient id="LinearGradient" gradientUnits="userSpaceOnUse" x1="0" y1="0" x2="0" y2="-27.089" gradientTransform="translate(13.5 30.232)">
   <stop offset="0" stop-color="#ffffff"/>
   <stop offset="1" stop-color="#e1e9f6"/>
  </linearGradient>
  <linearGradient id="LinearGradient_1" gradientUnits="userSpaceOnUse" x1="0" y1="0" x2="0" y2="-27.089" gradientTransform="translate(14.319 44.551)">
   <stop offset="0" stop-color="#ffffff"/>
   <stop offset="1" stop-color="#e1e9f6"/>
  </linearGradient>
 </defs>
 <g id="Document" fill="none" stroke="black" font-family="Times New Roman" font-size="16" transform="scale(1 -1)">
  <g id="Spread" transform="translate(0 -27)">
   <g id="Layer 1">
    <g id="Group" stroke-linejoin="miter" stroke-linecap="round" stroke="none">
     <path d="M 13.5,27 C 20.952,27 27,20.952 27,13.5 C 27,6.048 20.952,0 13.5,0 C 6.048,0 0,6.048 0,13.5 C 0,20.952 6.048,27 13.5,27 Z" stroke-width="0.751" fill="#295094" marker-start="none" marker-end="none" stroke-miterlimit="79.8403193612775"/>
     <path d="M 0.75,13.5 C 0.75,20.538 6.462,26.25 13.5,26.25 C 20.538,26.25 26.25,20.538 26.25,13.5 C 26.25,6.462 20.538,0.75 13.5,0.75 C 6.462,0.75 0.75,6.462 0.75,13.5 Z M 13.499,3.465 L 13.541,4.09 C 13.685,4.066 13.849,4.08 13.983,4.102 C 15.035,4.271 15.097,5.367 14.447,6.06 C 14.344,6.168 14.233,6.259 14.116,6.336 C 14.42,6.416 14.733,6.513 15.005,6.635 C 15.277,6.756 15.548,6.902 15.758,7.118 C 16.3,7.676 16.216,8.574 15.594,9.038 C 15.395,9.186 15.17,9.305 14.929,9.403 C 15.989,9.634 17.05,10.077 16.898,11.232 C 16.808,11.904 16.35,12.317 15.744,12.576 C 16.054,12.627 16.359,12.695 16.659,12.787 C 17.3,12.984 17.947,13.353 18.193,14.015 C 18.563,15.012 17.742,16.288 16.711,16.469 C 16.273,16.546 15.875,16.411 15.629,16.028 C 15.414,15.692 15.396,15.286 14.912,15.348 C 14.842,15.252 14.772,15.155 14.704,15.058 C 14.946,14.403 16.321,14.294 16.631,14.934 C 16.664,15.003 16.663,15.077 16.615,15.137 C 16.454,15.34 16.105,15.232 15.886,15.199 L 15.636,15.157 C 15.849,15.401 15.942,15.746 16.177,15.904 L 16.363,15.973 L 16.61,15.961 C 17.153,15.842 17.667,15.203 17.715,14.646 L 17.7,14.402 L 17.609,14.154 C 17.323,13.595 16.641,13.398 16.045,13.275 C 15.551,13.173 15.037,13.13 14.536,13.088 C 14.419,13.078 14.293,13.069 14.158,13.061 L 14.453,17.337 C 17.558,16.361 21.132,16.536 22.922,20.115 C 20.249,19.5 18.596,20.825 17.558,21.171 C 15.865,21.735 15.507,20.125 14.508,19.475 L 12.489,19.475 C 11.49,20.125 11.132,21.735 9.44,21.171 C 8.402,20.825 6.749,19.5 4.076,20.115 C 5.865,16.536 9.439,16.361 12.544,17.337 L 12.837,13.06 C 12.751,13.065 12.669,13.071 12.593,13.078 C 12.121,13.115 11.648,13.155 11.181,13.232 C 10.55,13.336 9.717,13.529 9.396,14.131 L 9.297,14.399 L 9.278,14.647 C 9.321,15.199 9.845,15.84 10.388,15.96 L 10.633,15.973 L 10.818,15.903 C 11.053,15.745 11.15,15.396 11.359,15.155 L 11.05,15.209 C 10.826,15.244 10.075,15.326 10.408,14.859 C 10.798,14.312 12.038,14.417 12.293,15.055 C 12.223,15.151 12.154,15.25 12.086,15.348 C 11.59,15.298 11.593,15.676 11.366,16.028 C 11.167,16.336 10.862,16.498 10.496,16.489 C 9.372,16.463 8.417,15.076 8.8,14.022 C 9.031,13.385 9.608,13.036 10.223,12.825 C 10.551,12.711 10.892,12.632 11.238,12.574 C 10.603,12.296 10.135,11.842 10.086,11.083 C 10.017,10.051 11.058,9.627 12.064,9.405 C 11.832,9.311 11.619,9.199 11.434,9.063 C 10.818,8.608 10.68,7.77 11.186,7.179 C 11.413,6.914 11.714,6.754 12.03,6.618 C 12.294,6.504 12.583,6.415 12.873,6.339 C 12.727,6.242 12.595,6.126 12.482,5.981 C 11.941,5.287 11.976,4.274 12.984,4.107 C 13.132,4.081 13.301,4.063 13.455,4.09 L 13.499,3.465 Z M 13.451,4.16 L 13.449,4.167 C 13.146,4.255 12.853,4.273 12.608,4.533 C 12.197,4.967 12.554,5.604 12.946,5.912 C 13.052,5.995 13.182,6.066 13.316,6.121 L 13.451,4.16 Z M 13.546,4.16 L 13.681,6.12 C 13.85,6.051 14.003,5.957 14.145,5.827 C 14.489,5.51 14.759,4.948 14.398,4.545 C 14.158,4.277 13.853,4.256 13.547,4.167 L 13.546,4.16 Z M 12.229,7.066 C 11.881,7.231 11.486,7.462 11.426,7.858 L 11.422,8.013 L 11.456,8.215 C 11.622,8.683 12.31,8.89 12.732,8.997 C 12.857,9.028 12.984,9.056 13.111,9.082 L 13.274,6.704 C 12.924,6.814 12.563,6.906 12.229,7.066 Z M 13.721,6.704 L 13.884,9.08 C 13.98,9.06 14.076,9.039 14.173,9.018 C 14.626,8.913 15.346,8.711 15.533,8.221 L 15.575,8.006 L 15.572,7.864 C 15.515,7.478 15.138,7.246 14.8,7.082 C 14.466,6.919 14.088,6.823 13.722,6.708 L 13.721,6.704 Z M 13.499,9.786 L 13.498,9.789 L 13.499,9.788 L 13.499,9.786 Z M 11.697,10.163 C 11.328,10.275 10.827,10.473 10.744,10.883 L 10.736,11.05 L 10.777,11.304 C 10.957,11.873 11.683,12.082 12.23,12.189 C 12.448,12.231 12.668,12.265 12.89,12.292 L 13.057,9.868 C 12.576,9.954 12.107,10.037 11.697,10.163 Z M 13.939,9.87 L 14.107,12.296 C 14.348,12.266 14.586,12.228 14.821,12.18 C 15.376,12.063 16.04,11.856 16.218,11.295 L 16.26,11.049 L 16.248,10.87 C 16.145,10.428 15.57,10.239 15.172,10.127 C 14.805,10.023 14.379,9.948 13.939,9.87 Z M 15.385,14.948 C 15.352,14.961 15.321,14.975 15.293,14.991 L 15.398,14.949 L 15.406,14.948 L 15.385,14.948 L 15.584,14.947 C 15.824,14.952 16.074,14.973 16.248,14.974 L 16.269,14.97 C 16.059,14.832 15.662,14.84 15.385,14.948 Z M 10.727,14.97 L 10.723,14.969 C 10.726,14.966 10.73,14.964 10.727,14.97 L 10.754,14.976 C 10.932,14.977 11.181,14.955 11.418,14.949 L 11.593,14.949 L 11.511,14.917 C 11.245,14.84 10.913,14.846 10.727,14.97 Z M 10.626,15.079 L 10.714,14.98 L 10.723,14.969 C 10.68,14.998 10.646,15.035 10.626,15.079 Z M 13.862,20.503 C 14.606,20.703 15.049,21.47 14.85,22.215 C 14.65,22.96 13.883,23.402 13.138,23.203 C 12.393,23.004 11.951,22.236 12.15,21.491 C 12.349,20.747 13.117,20.304 13.862,20.503 Z" stroke-width="0.708" marker-start="none" marker-end="none" stroke-miterlimit="79.8403193612775" fill="url(#LinearGradient)"/>
    </g>
   </g>
  </g>
 </g>
</svg>
