<?xml version="1.0" standalone="no"?>
<!DOCTYPE svg PUBLIC "-//W3C//DTD SVG 1.1//EN" "http://www.w3.org/Graphics/SVG/1.1/DTD/svg11.dtd">
<!--Generator: Xara Designer (www.xara.com), SVG filter version: 4.0.0.1-->
<svg stroke-width="0.501" stroke-linejoin="bevel" fill-rule="evenodd" xmlns:xlink="http://www.w3.org/1999/xlink" xmlns="http://www.w3.org/2000/svg" version="1.1" overflow="visible" width="27pt" height="27pt" viewBox="0 0 27 27">
 <defs>
  <marker id="DefaultArrow2" markerUnits="strokeWidth" viewBox="0 0 1 1" markerWidth="1" markerHeight="1" overflow="visible" orient="auto">
   <!-- REF_ARROW_STRAIGHT (-2) -->
   <g transform="scale(0.0092592592)">
    <!-- 1/108 -->
    <path d="M -9 54 L -9 -54 L 117 0 z"/>
   </g>
  </marker>
  <marker id="DefaultArrow3" markerUnits="strokeWidth" viewBox="0 0 1 1" markerWidth="1" markerHeight="1" overflow="visible" orient="auto">
   <!-- REF_ARROW_ANGLED -->
   <g transform="scale(0.0092592592)">
    <path d="M -27 54 L -9 0 L -27 -54 L 135 0 z"/>
   </g>
  </marker>
  <marker id="DefaultArrow4" markerUnits="strokeWidth" viewBox="0 0 1 1" markerWidth="1" markerHeight="1" overflow="visible" orient="auto">
   <!-- REF_ARROW_ROUNDED -->
   <g transform="scale(0.0092592592)">
    <path d="M -9,0 L -9,-45 C -9,-51.708 2.808,-56.580 9,-54 L 117,-9 C 120.916,-7.369 126.000,-4.242 126,0 C 126,4.242 120.916,7.369 117,9 L 9,54 C 2.808,56.580 -9,51.708 -9,45 z"/>
   </g>
  </marker>
  <marker id="DefaultArrow5" markerUnits="strokeWidth" viewBox="0 0 1 1" markerWidth="1" markerHeight="1" overflow="visible" orient="auto">
   <!-- REF_ARROW_SPOT -->
   <g transform="scale(0.0092592592)">
    <path d="M -54, 0 C -54,29.807 -29.807,54 0,54 C 29.807,54 54,29.807 54,0 C 54,-29.807 29.807,-54 0,-54 C -29.807,-54 -54,-29.807 -54,0 z"/>
   </g>
  </marker>
  <marker id="DefaultArrow6" markerUnits="strokeWidth" viewBox="0 0 1 1" markerWidth="1" markerHeight="1" overflow="visible" orient="auto">
   <!-- REF_ARROW_DIAMOND -->
   <g transform="scale(0.0092592592)">
    <path d="M -63,0 L 0,63 L 63,0 L 0,-63 z"/>
   </g>
  </marker>
  <marker id="DefaultArrow7" markerUnits="strokeWidth" viewBox="0 0 1 1" markerWidth="1" markerHeight="1" overflow="visible" orient="auto">
   <!-- REF_ARROW_FEATHER -->
   <g transform="scale(0.0092592592)">
    <path d="M 18,-54 L 108,-54 L 63,0 L 108,54 L 18, 54 L -36,0 z"/>
   </g>
  </marker>
  <marker id="DefaultArrow8" markerUnits="strokeWidth" viewBox="0 0 1 1" markerWidth="1" markerHeight="1" overflow="visible" orient="auto">
   <!-- REF_ARROW_FEATHER2 -->
   <g transform="scale(0.0092592592)">
    <path d="M -36,0 L 18,-54 L 54,-54 L 18,-18 L 27,-18 L 63,-54 L 99,-54 L 63,-18 L 72,-18 L 108,-54 L 144,-54 L 90,0 L 144,54 L 108,54 L 72,18 L 63,18 L 99,54 L 63,54 L 27,18 L 18,18 L 54,54 L 18,54 z"/>
   </g>
  </marker>
  <marker id="DefaultArrow9" markerUnits="strokeWidth" viewBox="0 0 1 1" markerWidth="1" markerHeight="1" overflow="visible" orient="auto">
   <!-- REF_ARROW_HOLLOWDIAMOND -->
   <g transform="scale(0.0092592592)">
    <path d="M 0,45 L -45,0 L 0, -45 L 45, 0 z M 0, 63 L-63, 0 L 0, -63 L 63, 0 z"/>
   </g>
  </marker>
  <filter id="StainedFilter">
   <feBlend mode="multiply" in2="BackgroundImage" in="SourceGraphic" result="blend"/>
   <feComposite in="blend" in2="SourceAlpha" operator="in" result="comp"/>
  </filter>
  <filter id="BleachFilter">
   <feBlend mode="screen" in2="BackgroundImage" in="SourceGraphic" result="blend"/>
   <feComposite in="blend" in2="SourceAlpha" operator="in" result="comp"/>
  </filter>
  <filter id="InvertTransparencyBitmapFilter">
   <feComponentTransfer>
    <feFuncR type="gamma" amplitude="1.055" exponent=".416666666" offset="-0.055"/>
    <feFuncG type="gamma" amplitude="1.055" exponent=".416666666" offset="-0.055"/>
    <feFuncB type="gamma" amplitude="1.055" exponent=".416666666" offset="-0.055"/>
   </feComponentTransfer>
   <feComponentTransfer>
    <feFuncR type="linear" slope="-1" intercept="1"/>
    <feFuncG type="linear" slope="-1" intercept="1"/>
    <feFuncB type="linear" slope="-1" intercept="1"/>
    <feFuncA type="linear" slope="1" intercept="0"/>
   </feComponentTransfer>
   <feComponentTransfer>
    <feFuncR type="gamma" amplitude="1" exponent="2.4" offset="0"/>
    <feFuncG type="gamma" amplitude="1" exponent="2.4" offset="0"/>
    <feFuncB type="gamma" amplitude="1" exponent="2.4" offset="0"/>
   </feComponentTransfer>
  </filter>
  <linearGradient id="LinearGradient" gradientUnits="userSpaceOnUse" x1="0" y1="0" x2="0" y2="-27.09" gradientTransform="translate(13.5 30.233)">
   <stop offset="0" stop-color="#ffffff"/>
   <stop offset="1" stop-color="#e1e9f6"/>
  </linearGradient>
 </defs>
 <g id="Document" fill="none" stroke="black" font-family="Times New Roman" font-size="16" transform="scale(1 -1)">
  <g id="Spread" transform="translate(0 -27)">
   <g id="Layer 1">
    <path d="M 13.5,27 C 20.952,27 27,20.952 27,13.5 C 27,6.048 20.952,0 13.5,0 C 6.048,0 0,6.048 0,13.5 C 0,20.952 6.048,27 13.5,27 Z" stroke-linecap="round" stroke="none" stroke-width="0.75" fill="#295094" stroke-linejoin="round" marker-start="none" marker-end="none" stroke-miterlimit="79.8403193612775"/>
    <path d="M 13.5,26.25 C 20.538,26.25 26.25,20.538 26.25,13.5 C 26.25,6.462 20.538,0.75 13.5,0.75 C 6.462,0.75 0.75,6.462 0.75,13.5 C 0.75,20.538 6.462,26.25 13.5,26.25 Z" stroke-linecap="round" stroke="none" stroke-width="0.75" stroke-linejoin="miter" marker-start="none" marker-end="none" stroke-miterlimit="79.8403193612775" fill="url(#LinearGradient)"/>
    <path d="M 7.433,6.901 L 8.484,7.952 C 8.63,8.099 8.63,8.336 8.484,8.483 C 8.337,8.629 8.1,8.629 7.953,8.483 L 6.903,7.431 C 6.086,9.654 5.655,13.314 9.744,17.288 C 13.833,21.261 17.492,20.912 19.6,20.127 L 18.549,19.077 C 18.403,18.93 18.403,18.693 18.549,18.546 C 18.696,18.4 18.933,18.4 19.08,18.546 L 20.13,19.597 C 20.921,17.393 21.261,13.828 17.288,9.744 C 13.312,5.659 9.058,6.173 7.433,6.901 Z M 11.129,10.595 L 12.058,11.525 L 12.989,10.595 C 13.136,10.449 13.373,10.449 13.52,10.595 C 13.666,10.742 13.666,10.979 13.52,11.126 L 12.589,12.056 L 13.649,13.116 L 15.11,11.655 C 15.257,11.509 15.494,11.509 15.641,11.655 C 15.787,11.802 15.787,12.039 15.641,12.186 L 14.18,13.647 L 15.24,14.707 L 16.171,13.777 C 16.318,13.631 16.555,13.631 16.702,13.777 C 16.848,13.924 16.848,14.161 16.702,14.308 L 15.771,15.238 L 16.701,16.169 C 16.847,16.316 16.847,16.553 16.701,16.7 C 16.554,16.846 16.317,16.846 16.17,16.7 L 15.24,15.769 L 14.31,16.7 C 14.163,16.846 13.926,16.846 13.779,16.7 C 13.633,16.553 13.633,16.316 13.779,16.169 L 14.709,15.238 L 13.649,14.178 L 12.189,15.639 C 12.042,15.785 11.805,15.785 11.658,15.639 C 11.512,15.492 11.512,15.255 11.658,15.108 L 13.118,13.647 L 12.058,12.587 L 11.128,13.518 C 10.981,13.664 10.744,13.664 10.597,13.518 C 10.451,13.371 10.451,13.134 10.597,12.987 L 11.527,12.056 L 10.598,11.126 C 10.452,10.979 10.452,10.742 10.598,10.595 C 10.745,10.449 10.982,10.449 11.129,10.595 Z" stroke-linecap="round" stroke="none" stroke-width="0.75" fill="#295094" stroke-linejoin="round" marker-start="none" marker-end="none" stroke-miterlimit="79.8403193612775"/>
   </g>
  </g>
 </g>
</svg>
