<?xml version="1.0" encoding="utf-8"?>
<!-- Generator: Adobe Illustrator 18.1.0, SVG Export Plug-In . SVG Version: 6.00 Build 0)  -->
<svg version="1.1" id="Capa_1" xmlns="http://www.w3.org/2000/svg" xmlns:xlink="http://www.w3.org/1999/xlink" x="0px" y="0px"
	 viewBox="0 0 32 32" enable-background="new 0 0 32 32" xml:space="preserve">
<g>
	<path fill="#6C6C6C" d="M28.7,5.4H3.3C1.7,5.4,1,6.1,1,7.8v16.5c0,1.6,0.7,2.4,2.3,2.4h25.3c1.6,0,2.3-0.7,2.3-2.4V7.8
		C31,6.1,30.3,5.4,28.7,5.4z M3.4,6.6h25.3c0.5,0,1.2,0.6,1.2,1.2v2.9H2.2V7.8C2.2,7.2,2.8,6.6,3.4,6.6z M28.6,25.4H3.4
		c-0.5,0-1.2-0.6-1.2-1.2v-8.8h27.6v8.8C29.8,24.8,29.2,25.4,28.6,25.4z M21.6,19.5h5.3c0.3,0,0.6,0.3,0.6,0.6v2.9
		c0,0.3-0.3,0.6-0.6,0.6h-5.3c-0.3,0-0.6-0.3-0.6-0.6v-2.9C21,19.9,21.3,19.5,21.6,19.5z"/>
</g>
</svg>
