<?xml version="1.0" encoding="utf-8"?>
<!-- Generator: Adobe Illustrator 18.1.0, SVG Export Plug-In . SVG Version: 6.00 Build 0)  -->
<svg version="1.1" id="Capa_1" xmlns="http://www.w3.org/2000/svg" xmlns:xlink="http://www.w3.org/1999/xlink" x="0px" y="0px"
	 viewBox="0 0 32 32" enable-background="new 0 0 32 32" xml:space="preserve">
<g>
	<path fill="#6C6C6C" d="M25.6,3.1c-2-2.4-5.4-2.8-7.9-1.1c0,0,0.2,0.7,0.4,1.2c0,0,0,0,0,0.1c0.5,1.3,1.4,2.8,2.6,4.2
		c1.4,1.7,2.9,3,4.2,3.8C27.3,9.2,27.6,5.6,25.6,3.1z"/>
	<path fill="#6C6C6C" d="M20.1,8.1c-1.6-1.9-2.6-3.9-3-5.5c-1.1,1.1-1.7,2.5-1.8,4c0.4,1.2,1.1,2.4,2.1,3.6c0.8,0.9,1.6,1.7,2.5,2.3
		c0.1,0,0.3,0.1,0.4,0.1c0,0,0,0,0,0l0,0c1.3,0.2,2.7-0.1,3.9-0.8C22.8,11,21.4,9.8,20.1,8.1z"/>
	<path fill="#6C6C6C" d="M16.3,16c0.2-0.1,0.2-0.3,0.1-0.6l2.7-1.9c-0.9-0.6-1.8-1.5-2.6-2.4c-1-1.2-1.8-2.6-2.2-3.8l-2.7,2.5
		c-0.1,0-0.3,0-0.3,0.1l-3.4,2.8c-0.2,0.1-0.2,0.4-0.1,0.7l-1.7,1.6c-1,0.8-1.2,2.2-0.4,3.1L7,19.8c0.7,0.9,2.1,1,3.1,0.2l1.8-1.3
		c0.1,0.1,0-0.1,0.1-0.1v11H8.3V31H12h2.2h4.4v-1.5h-4.4V17.8L16.3,16z"/>
</g>
</svg>
