<?xml version="1.0" encoding="utf-8"?>
<!-- Generator: Adobe Illustrator 18.1.0, SVG Export Plug-In . SVG Version: 6.00 Build 0)  -->
<svg version="1.1" id="Capa_1" xmlns="http://www.w3.org/2000/svg" xmlns:xlink="http://www.w3.org/1999/xlink" x="0px" y="0px"
	 viewBox="0 0 32 32" enable-background="new 0 0 32 32" xml:space="preserve">
<g>
	<path fill="#6C6C6C" d="M15.3,12.7h-3.9v2.6h3.9V12.7z"/>
	<path fill="#6C6C6C" d="M20.6,12.7h-3.9v2.6h3.9V12.7z"/>
	<path fill="#6C6C6C" d="M25.8,12.7h-3.9v2.6h3.9V12.7z"/>
	<path fill="#6C6C6C" d="M28.4,4.9V1h-5.2v3.9H8.8V1H3.6v3.9H1L1,31l30,0V4.9H28.4z M28.4,28.4H3.6V10.1h24.8V28.4z"/>
	<path fill="#6C6C6C" d="M15.3,18h-3.9v2.6h3.9V18z"/>
	<path fill="#6C6C6C" d="M20.6,18h-3.9v2.6h3.9V18z"/>
	<path fill="#6C6C6C" d="M25.8,18h-3.9v2.6h3.9V18z"/>
	<path fill="#6C6C6C" d="M15.3,23.2h-3.9v2.6h3.9V23.2z"/>
	<path fill="#6C6C6C" d="M20.6,23.2h-3.9v2.6h3.9V23.2z"/>
	<path fill="#6C6C6C" d="M10.1,18H6.2v2.6h3.9V18z"/>
	<path fill="#6C6C6C" d="M10.1,23.2H6.2v2.6h3.9V23.2z"/>
</g>
</svg>
