<?xml version="1.0" encoding="utf-8"?>
<!-- Generator: Adobe Illustrator 18.1.0, SVG Export Plug-In . SVG Version: 6.00 Build 0)  -->
<svg version="1.1" id="Capa_1" xmlns="http://www.w3.org/2000/svg" xmlns:xlink="http://www.w3.org/1999/xlink" x="0px" y="0px"
	 viewBox="0 0 32 32" enable-background="new 0 0 32 32" xml:space="preserve">
<g>
	<path fill="#6C6C6C" d="M30.4,21.5l-3.2,3.2l-5.4-5.4c-0.7-0.7-1.8-0.7-2.5,0l0,0c-0.7,0.7-0.7,1.8,0,2.5l5.4,5.4l-3.2,3.2L31,31
		L30.4,21.5z"/>
	<path fill="#6C6C6C" d="M30.4,10.5L31,1l-9.5,0.6l3.2,3.2l-5.4,5.4c-0.7,0.7-0.7,1.8,0,2.5l0,0c0.7,0.7,1.8,0.7,2.5,0l5.4-5.4
		L30.4,10.5z"/>
	<path fill="#6C6C6C" d="M12.8,19.2L12.8,19.2c-0.7-0.7-1.8-0.7-2.5,0l-5.4,5.4l-3.2-3.2L1,31l9.5-0.6l-3.2-3.2l5.4-5.4
		C13.5,21.1,13.5,19.9,12.8,19.2z"/>
	<path fill="#6C6C6C" d="M12.8,10.2L7.3,4.8l3.2-3.2L1,1l0.6,9.5l3.2-3.2l5.4,5.4c0.7,0.7,1.8,0.7,2.5,0l0,0
		C13.5,12.1,13.5,10.9,12.8,10.2z"/>
</g>
</svg>
