<?xml version="1.0" encoding="utf-8"?>
<!-- Generator: Adobe Illustrator 18.1.0, SVG Export Plug-In . SVG Version: 6.00 Build 0)  -->
<svg version="1.1" id="Capa_1" xmlns="http://www.w3.org/2000/svg" xmlns:xlink="http://www.w3.org/1999/xlink" x="0px" y="0px"
	 viewBox="0 0 32 32" enable-background="new 0 0 32 32" xml:space="preserve">
<g>
	
		<rect x="12.3" y="10" transform="matrix(-0.7071 -0.7071 0.7071 -0.7071 15.9851 38.5962)" fill="#6C6C6C" width="7.4" height="11.9"/>
	<path fill="#6C6C6C" d="M30.3,9.7l-2.2-2.2l-0.9,0.9c-0.5,0.5-1.1,0.8-1.9,0.8c-1.5,0-2.7-1.2-2.7-2.7c0-0.7,0.3-1.4,0.8-1.9
		l0.9-0.9l-2.2-2.2c-0.9-0.9-2.3-0.9-3.2,0L1.7,19.1c-0.9,0.9-0.9,2.3,0,3.2l2.2,2.2l0.9-0.9c0.5-0.5,1.1-0.8,1.9-0.8
		c1.5,0,2.7,1.2,2.7,2.7c0,0.7-0.3,1.4-0.8,1.9l-0.9,0.9l2.2,2.2c0.9,0.9,2.3,0.9,3.2,0l17.4-17.4C31.2,12,31.2,10.6,30.3,9.7z
		 M14.1,25.4l-7.5-7.5L17.9,6.6l7.5,7.5L14.1,25.4z"/>
</g>
</svg>
