<?xml version="1.0" encoding="utf-8"?>
<!-- Generator: Adobe Illustrator 18.1.0, SVG Export Plug-In . SVG Version: 6.00 Build 0)  -->
<svg version="1.1" id="Capa_1" xmlns="http://www.w3.org/2000/svg" xmlns:xlink="http://www.w3.org/1999/xlink" x="0px" y="0px"
	 viewBox="0 0 32 32" enable-background="new 0 0 32 32" xml:space="preserve">
<path fill="#6C6C6C" d="M22.7,8.3h-2l0-5.8C20.7,1.7,20,1,19.2,1h-6.3c-0.8,0-1.5,0.7-1.5,1.5l0,5.8h-2c-1.1,0-2,0.9-2,2V27
	c0,1.1,0.9,2,2,2c0,0,0.3,0,0.7,0c0,0.8,0.8,2,2,2c1.6,0,1.9-1.4,2-2h4c0.1,0.6,0.3,2,2,2c1.7,0,1.9-1.4,2-2h0.7c1.1,0,2-0.9,2-2
	V10.3C24.7,9.3,23.7,8.3,22.7,8.3z M12.7,3.7H14h5.3v0.7v4h-6.7v-4V3.7z M22,14.3h-4.7h-0.7v-2h0.7H22V13v0.7V14.3z"/>
</svg>
