<?xml version="1.0" encoding="utf-8"?>
<!-- Generator: Adobe Illustrator 18.1.0, SVG Export Plug-In . SVG Version: 6.00 Build 0)  -->
<svg version="1.1" id="Capa_1" xmlns="http://www.w3.org/2000/svg" xmlns:xlink="http://www.w3.org/1999/xlink" x="0px" y="0px"
	 viewBox="0 0 32 32" enable-background="new 0 0 32 32" xml:space="preserve">
<path fill="#6C6C6C" d="M29.1,9.4l-6.6-6.6L24.4,1L31,7.6L29.1,9.4z M27.2,11.3l-0.9,10.3C17.9,21.6,5.7,31,5.7,31l-1.6-1.6l8-8
	c0.3,0.1,0.7,0.2,1,0.2c1.6,0,2.8-1.3,2.8-2.8c0-1.6-1.3-2.8-2.8-2.8c-1.6,0-2.8,1.3-2.8,2.8c0,0.4,0.1,0.7,0.2,1l-8,8L1,26.3
	c0,0,9.4-12.2,9.4-20.6l10.3-0.9L27.2,11.3z"/>
</svg>
