<?xml version="1.0" encoding="utf-8"?>
<!-- Generator: Adobe Illustrator 18.1.0, SVG Export Plug-In . SVG Version: 6.00 Build 0)  -->
<svg version="1.1" id="Capa_1" xmlns="http://www.w3.org/2000/svg" xmlns:xlink="http://www.w3.org/1999/xlink" x="0px" y="0px"
	 viewBox="0 0 32 32" enable-background="new 0 0 32 32" xml:space="preserve">
<path fill="#6C6C6C" d="M24.7,12.8l-6.8,1.8c0,0,1.6-3.7,4.1-3.7C24.1,10.9,24.7,12.8,24.7,12.8z M31,3.1
	c-1.1,9.4-3.3,21.1-14.5,26.8c-0.3,0.1-0.6,0.1-0.9,0C4.3,24.2,2.1,12.5,1,3.1C0.9,2.4,1.6,1.8,2.2,2l13.5,3.4c0.1,0,0.3,0,0.4,0
	L29.8,2C30.4,1.8,31.1,2.4,31,3.1z M28.4,5.2L16.7,7.9v11.1c0.9,0,3.7,0.7,4.6,3.3c-1.5,0.1-3.3-0.2-4.6,0v4.6
	C25.9,22.3,27.7,12.3,28.4,5.2z M9.6,17.6c1.3,4.3,5.1,4.6,5.1,4.6v-3.3C11.4,18.5,9.6,17.6,9.6,17.6z M10.4,10.9
	c-2.1-0.2-2.7,1.9-2.7,1.9l6.8,1.8C14.5,14.6,12.5,11.1,10.4,10.9z"/>
</svg>
