<?xml version="1.0" encoding="UTF-8" standalone="no"?>
<!-- Generator: Adobe Illustrator 18.1.0, SVG Export Plug-In . SVG Version: 6.00 Build 0)  -->

<svg
   xmlns:dc="http://purl.org/dc/elements/1.1/"
   xmlns:cc="http://creativecommons.org/ns#"
   xmlns:rdf="http://www.w3.org/1999/02/22-rdf-syntax-ns#"
   xmlns:svg="http://www.w3.org/2000/svg"
   xmlns="http://www.w3.org/2000/svg"
   xmlns:sodipodi="http://sodipodi.sourceforge.net/DTD/sodipodi-0.dtd"
   xmlns:inkscape="http://www.inkscape.org/namespaces/inkscape"
   version="1.1"
   id="Capa_1"
   x="0px"
   y="0px"
   viewBox="0 0 27 27"
   enable-background="new 0 0 27 27"
   xml:space="preserve"
   width="27pt"
   height="27pt"
   inkscape:version="0.48.5 r10040"
   sodipodi:docname="ic_restrooms.svg"><metadata
   id="metadata25"><rdf:RDF><cc:Work
       rdf:about=""><dc:format>image/svg+xml</dc:format><dc:type
         rdf:resource="http://purl.org/dc/dcmitype/StillImage" /><dc:title></dc:title></cc:Work></rdf:RDF></metadata><defs
   id="defs23" /><sodipodi:namedview
   pagecolor="#ffffff"
   bordercolor="#666666"
   borderopacity="1"
   objecttolerance="10"
   gridtolerance="10"
   guidetolerance="10"
   inkscape:pageopacity="0"
   inkscape:pageshadow="2"
   inkscape:window-width="640"
   inkscape:window-height="833"
   id="namedview21"
   showgrid="false"
   inkscape:zoom="6.9925926"
   inkscape:cx="16.875"
   inkscape:cy="16.875"
   inkscape:window-x="0"
   inkscape:window-y="312"
   inkscape:window-maximized="0"
   inkscape:current-layer="Capa_1" />
<g
   id="g3">
	<path
   fill="#6C6C6C"
   d="M18,2.6v26.7h-1.3l0-26.7H18z"
   id="path5" />
	<path
   fill="#6C6C6C"
   d="M16.7,16"
   id="path7" />
	<path
   fill="#6C6C6C"
   d="M7.8,7C9,7,9.9,6,9.9,4.8S9,2.6,7.8,2.6c-1.2,0-2.1,1-2.1,2.2S6.6,7,7.8,7z"
   id="path9" />
	<path
   fill="#6C6C6C"
   d="M7.8,4.8"
   id="path11" />
	<path
   fill="#6C6C6C"
   d="M7.5,20.9v7.2c0,1.4-2,1.4-2,0v-7.2H2.9l2.4-9.6H4.1l-1.2,4.3c-0.4,1.3-2.2,1-1.8-0.4l2.1-5.6   c0.2-0.7,0.9-1.4,2.2-1.4l2.3,0.1l0,0l2.1-0.1c1.3,0,2.2,0.7,2.4,1.4l2.1,5.6c0.4,1.3-1.6,1.7-2,0.4L11,11.3H9.8l3,9.6h-2.6v7.2   c0,1.4-2,1.3-2,0v-7.2H7.5z"
   id="path13" />
	<path
   fill="#6C6C6C"
   d="M23.5,8.2c-1.5,0-2.3,0.7-2.3,2.2V17c0,1.3,2,1.3,2,0v-5.9h0.7v17c0,1.7,2,1.7,2,0v-8.5h0.7v8.5   c0,1.7,2,1.7,2,0v-17H29V17c0,1.3,2,1.3,2,0v-6.6c0-1.5-0.9-2.1-2.5-2.1H23.5z"
   id="path15" />
	<path
   fill="#6C6C6C"
   d="M26,7c1.2,0,2.1-1,2.1-2.2s-1-2.2-2.1-2.2s-2.1,1-2.1,2.2S24.8,7,26,7z"
   id="path17" />
	<path
   fill="#6C6C6C"
   d="M26,4.8"
   id="path19" />
</g>
</svg>