<?xml version="1.0" encoding="utf-8"?>
<!-- Generator: Adobe Illustrator 18.1.0, SVG Export Plug-In . SVG Version: 6.00 Build 0)  -->
<svg version="1.1" id="Capa_1" xmlns="http://www.w3.org/2000/svg" xmlns:xlink="http://www.w3.org/1999/xlink" x="0px" y="0px"
	 viewBox="0 0 32 32" enable-background="new 0 0 32 32" xml:space="preserve">
<g>
	<path fill="#6C6C6C" d="M11.6,31c0.8,0,0.6-1.1,0.6-1.9v-15l2.5-1.2V11V8.5V1.6c0-0.4-0.2-0.6-0.6-0.6c-0.4,0-0.6,0.2-0.6,0.6v6.9
		h-0.6l0-6.8c0-0.4-0.2-0.7-0.6-0.7c-0.4,0-0.6,0.2-0.6,0.6v6.9H11V1.6C11,1.2,10.8,1,10.4,1C10,1,9.8,1.2,9.8,1.6v6.9H9.1V1.6
		C9.1,1.2,8.9,1,8.5,1C8.1,1,7.9,1.2,7.9,1.6l0,7v3.5l0,0.8l2.5,1.2v15C10.4,29.9,10.1,30.9,11.6,31z"/>
	<path fill="#6C6C6C" d="M22.9,31c0.8,0,1.2-0.5,1.2-1.2l0-11.4v-2.1l0-15.2c-1.2,0-5-0.3-5,5v12.5h2.5v11.2
		C21.6,30.5,22.1,31,22.9,31z"/>
</g>
</svg>
