<?xml version="1.0" encoding="utf-8"?>
<!-- Generator: Adobe Illustrator 18.1.0, SVG Export Plug-In . SVG Version: 6.00 Build 0)  -->
<svg version="1.1" id="Capa_1" xmlns="http://www.w3.org/2000/svg" xmlns:xlink="http://www.w3.org/1999/xlink" x="0px" y="0px"
	 viewBox="0 0 32 32" enable-background="new 0 0 32 32" xml:space="preserve">
<g>
	<polygon fill-rule="evenodd" clip-rule="evenodd" fill="#6C6C6C" points="21.2,25.1 21.2,15.3 21.9,14.6 21.9,13.2 17,13.2 
		17,14.6 17.7,15.3 17.7,25.1 	"/>
	<polygon fill-rule="evenodd" clip-rule="evenodd" fill="#6C6C6C" points="28.2,25.1 28.2,15.3 28.9,14.6 28.9,13.2 24,13.2 
		24,14.6 24.7,15.3 24.7,25.1 	"/>
	<polygon fill-rule="evenodd" clip-rule="evenodd" fill="#6C6C6C" points="29.6,28.6 29.6,26.5 2.4,26.5 2.4,28.6 1,28.6 1,30.7 
		31,30.7 31,28.6 	"/>
	<polygon fill-rule="evenodd" clip-rule="evenodd" fill="#6C6C6C" points="15,13.2 10.1,13.2 10.1,14.6 10.8,15.3 10.8,25.1 
		14.3,25.1 14.2,15.3 15,14.6 	"/>
	<polygon fill-rule="evenodd" clip-rule="evenodd" fill="#6C6C6C" points="7.3,25.1 7.3,15.3 8,14.6 8,13.2 3.1,13.2 3.1,14.6 
		3.8,15.3 3.8,25.1 	"/>
	<polygon fill-rule="evenodd" clip-rule="evenodd" fill="#6C6C6C" points="29.6,9.7 28.9,9.7 16.3,1.3 15.7,1.3 2.4,9.7 1.7,9.7 
		1.7,11.1 29.6,11.1 	"/>
</g>
</svg>
