<?xml version="1.0" encoding="utf-8"?>
<!-- Generator: Adobe Illustrator 18.1.0, SVG Export Plug-In . SVG Version: 6.00 Build 0)  -->
<svg version="1.1" id="Capa_1" xmlns="http://www.w3.org/2000/svg" xmlns:xlink="http://www.w3.org/1999/xlink" x="0px" y="0px"
	 viewBox="0 0 32 32" enable-background="new 0 0 32 32" xml:space="preserve">
<path fill-rule="evenodd" clip-rule="evenodd" fill="#6C6C6C" d="M31,28.4l-6.6-6.6c1.6-2.2,2.6-4.9,2.6-7.8c0-7.2-5.8-13-13-13
	C6.8,1,1,6.8,1,14c0,7.2,5.8,13,13,13c2.9,0,5.6-1,7.8-2.6l6.6,6.6L31,28.4z M3.6,14C3.6,8.3,8.3,3.6,14,3.6
	c5.8,0,10.4,4.7,10.4,10.4c0,5.8-4.7,10.4-10.4,10.4C8.3,24.5,3.6,19.8,3.6,14z"/>
</svg>
