<?xml version="1.0" encoding="utf-8"?>
<!-- Generator: Adobe Illustrator 18.1.0, SVG Export Plug-In . SVG Version: 6.00 Build 0)  -->
<svg version="1.1" id="Capa_1" xmlns="http://www.w3.org/2000/svg" xmlns:xlink="http://www.w3.org/1999/xlink" x="0px" y="0px"
	 viewBox="0 0 32 32" enable-background="new 0 0 32 32" xml:space="preserve">
<g>
	<path fill="#6C6C6C" d="M16,0.5C7.4,0.5,0.5,7.4,0.5,16S7.4,31.5,16,31.5S31.5,24.6,31.5,16S24.6,0.5,16,0.5z M16,27.6
		C9.6,27.6,4.4,22.4,4.4,16S9.6,4.4,16,4.4S27.6,9.6,27.6,16S22.4,27.6,16,27.6z"/>
	<path fill="#6C6C6C" d="M18.3,21.2l-4.4-4.5v-6.1c0-1,0.8-1.8,1.8-1.8l0,0c1,0,1.8,0.8,1.8,1.8v4.6l3.3,3.4c0.7,0.7,0.7,1.8,0,2.5
		l0,0C20.1,21.9,19,21.9,18.3,21.2z"/>
</g>
</svg>
