<?xml version="1.0" encoding="utf-8"?>
<!-- Generator: Adobe Illustrator 18.1.0, SVG Export Plug-In . SVG Version: 6.00 Build 0)  -->
<svg version="1.1" id="Capa_1" xmlns="http://www.w3.org/2000/svg" xmlns:xlink="http://www.w3.org/1999/xlink" x="0px" y="0px"
	 viewBox="0 0 32 32" enable-background="new 0 0 32 32" xml:space="preserve">
<g>
	<path fill="#6C6C6C" d="M9.1,22.4L24.6,6.6c-1.9-3.1-5-5.3-8.7-5.9C9-0.2,3.4,4.9,1.8,11.9c-2,8.9,0.3,12,4.5,12.1
		C7.1,23.3,8,22.7,9.1,22.4z M14.6,3.5c1.4,0.2,2.3,1.5,2.1,2.8c-0.2,1.4-1.5,2.3-2.8,2.1c-1.4-0.2-2.3-1.5-2.1-2.8
		C11.9,4.3,13.2,3.3,14.6,3.5z M8.4,7.8c1.2,0.2,2,1.2,1.8,2.4c-0.2,1.2-1.2,2-2.4,1.8c-1.2-0.2-2-1.2-1.8-2.4
		C6.2,8.5,7.3,7.6,8.4,7.8z M3.9,15.8c0.1-1,1.1-1.7,2-1.5c1,0.1,1.7,1,1.5,2c-0.1,1-1.1,1.7-2,1.5C4.4,17.6,3.7,16.7,3.9,15.8z"/>
	<path fill="#6C6C6C" d="M30.4,4.8C29.6,4,29,4.4,29,4.4L15.7,17.3l-0.3,0.3l3.9,3.5l0.3-0.4L31,5.8C31,5.5,30.8,5.2,30.4,4.8z"/>
	<polygon fill="#6C6C6C" points="11.1,22.4 10.8,22.8 14.7,26.3 15,26 18.6,21.9 14.7,18.4 	"/>
	<path fill="#6C6C6C" d="M10,23.7C10,23.7,10,23.7,10,23.7c-3,0.7-5.8,3.9-2.9,7.4c0.1,0.2,0.4,0.2,0.6,0.2c0.2-0.1,0.4-0.2,0.4-0.4
		c0.1-0.5,0.3-1,0.6-1.4c0.9-0.9,3.4,0.5,5-2.2c0,0,0.2-0.3,0.2-0.4l-3.6-3.3C10.1,23.7,10,23.7,10,23.7z M11.9,27.9
		c-0.6,0.4-1.2,0.4-1.9,0.4c-0.7,0-1.5,0.1-2.1,0.6c-0.1,0.1-0.2,0.2-0.3,0.3c-0.1,0.1-0.3,0.2-0.4,0.2c-0.2,0-0.3-0.1-0.4-0.3
		c-0.2-0.5-0.2-1.1,0-1.6c0.1-0.3,0.2-0.6,0.4-0.9c0.7,0.8,1.4,1.3,2.6,1.2C10.6,27.7,11.3,27.7,11.9,27.9z"/>
</g>
</svg>
