<?xml version="1.0" encoding="utf-8"?>
<!-- Generator: Adobe Illustrator 18.1.0, SVG Export Plug-In . SVG Version: 6.00 Build 0)  -->
<svg version="1.1" id="Capa_1" xmlns="http://www.w3.org/2000/svg" xmlns:xlink="http://www.w3.org/1999/xlink" x="0px" y="0px"
	 viewBox="0 0 32 32" enable-background="new 0 0 32 32" xml:space="preserve">
<g>
	<path fill="#D15758" d="M15.9,1C9.2,1,3.8,6.4,3.8,13c0,3,1.2,5.8,2.9,7.8c2.1,2.5,10.2,10,10.2,10s7.6-8.5,9.5-11.5
		c1.5-2.3,1.8-3.4,1.8-6.2C28.1,6.4,22.7,1,15.9,1z M20.1,17.5c-1.1,1.2-2.5,1.8-4.1,1.8c-1.5,0-3-0.6-4-1.8
		c-1.2-1.2-1.7-2.7-1.7-4.4c0-1.6,0.6-3.2,1.7-4.4c1-1.2,2.5-1.8,4-1.8c1.6,0,3,0.6,4.1,1.8c1.1,1.2,1.6,2.7,1.6,4.3
		C21.7,14.7,21.1,16.3,20.1,17.5z"/>
	<path fill="#BEBEBD" d="M16,19.4c-1.5,0-3-0.6-4-1.8c-1.2-1.2-1.7-2.8-1.7-4.5c0-1.6,0.6-3.2,1.8-4.4c1-1.2,2.5-1.9,4-1.9
		c0.2,0,0.4,0,0.4,0V1c0,0-0.3,0-0.5,0C9.2,1,3.7,6.4,3.7,13.1c0,3,1.2,5.8,2.9,7.8c1.8,2.2,8.3,8.1,9.8,9.7V19.4
		C16.4,19.4,16.2,19.4,16,19.4z"/>
	<path fill="#D15758" d="M25.3,21c1.5-2.3,3-5,3-7.9C28.3,6.6,23,1.3,16.4,1v5.9c1.5,0.1,2.7,0.7,3.7,1.8c1.1,1.2,1.7,2.7,1.7,4.4
		c0,1.7-0.6,3.3-1.7,4.5c-1,1.1-2.2,1.7-3.7,1.8v11.3c0.3,0.2,0.4,0.4,0.4,0.4S23.4,24.1,25.3,21z"/>
</g>
</svg>
