<?xml version="1.0" encoding="utf-8"?>
<!-- Generator: Adobe Illustrator 18.1.0, SVG Export Plug-In . SVG Version: 6.00 Build 0)  -->
<svg version="1.1" id="Capa_1" xmlns="http://www.w3.org/2000/svg" xmlns:xlink="http://www.w3.org/1999/xlink" x="0px" y="0px"
	 viewBox="0 0 60 20" enable-background="new 0 0 60 20" xml:space="preserve">
<g>
	<path fill="#D15758" d="M9.9,7.1C10,7.1,10,7.1,10,7.2l-2.7,5.3c0,0.1-0.1,0.1-0.2,0.1s-0.1-0.1-0.2-0.1l-1.2-2.2
		c0-0.1-0.1-0.1-0.1,0l-1.2,2.2c0,0.1-0.1,0.1-0.2,0.1c-0.1,0-0.1-0.1-0.2-0.1L1.3,7.2c0-0.1,0-0.1,0.1-0.1h1.3
		c0.1,0,0.2,0.1,0.2,0.1l1.3,2.4c0,0.1,0.1,0.1,0.1,0l0.5-0.9c0-0.1,0.1-0.2,0.1-0.3l0.7-1.3c0-0.1,0.1-0.1,0.1,0L7,9.6
		c0,0.1,0.1,0.1,0.1,0l1.3-2.4c0-0.1,0.1-0.1,0.2-0.1H9.9z"/>
	<path fill="#D15758" d="M17.5,12.6c-0.1,0-0.2-0.1-0.2-0.2V3.2c0-0.1,0.1-0.2,0.2-0.2h1.3C18.9,3,19,3.1,19,3.2v9.2
		c0,0.1-0.1,0.2-0.2,0.2H17.5z"/>
	<path fill="#D15758" d="M24.2,12.6c-0.1,0-0.2-0.1-0.2-0.1l-1.7-2c-0.1-0.1-0.1-0.1-0.2,0l-0.2,0.2c-0.1,0.1-0.1,0.2-0.1,0.3v1.6
		c0,0.1-0.1,0.2-0.2,0.2h-1.5c-0.1,0-0.2-0.1-0.2-0.2V3.2C20,3.1,20.1,3,20.2,3h1.5c0.1,0,0.2,0.1,0.2,0.2v5.5c0,0.1,0,0.1,0.1,0
		l1.4-1.6c0.1-0.1,0.2-0.1,0.3-0.1h1.9c0.1,0,0.1,0,0,0.1l-2,2.1c-0.1,0.1-0.1,0.2,0,0.2l2.5,3c0.1,0.1,0,0.1-0.1,0.1H24.2z"/>
	<path fill="#BEBEBD" d="M32,7.8c0.1,0,0.2,0.1,0.1,0.1l0,4.5c0,0.1-0.1,0.2-0.2,0.2h-1c-0.1,0-0.2-0.1-0.2-0.2v-0.2
		c0-0.1-0.1-0.1-0.1-0.1c0,0-1,0.6-1.7,0.6c-1.6,0-2.8-1.3-2.8-2.8c0-1.6,1.3-2.8,2.8-2.8c0.7,0,1.3,0.2,1.8,0.7L32,7.8z M30.6,9.9
		c0-0.4-0.1-0.8-0.4-1c-0.3-0.3-0.6-0.4-1-0.4c-0.4,0-0.7,0.1-1,0.4c-0.3,0.3-0.4,0.6-0.4,1c0,0.4,0.1,0.7,0.4,1
		c0.3,0.3,0.6,0.4,1,0.4c0.4,0,0.7-0.1,1-0.4C30.5,10.7,30.6,10.3,30.6,9.9z"/>
	<path fill="#BEBEBD" d="M35.2,7.7c0.5-0.5,1.3-0.8,2.1-0.8c1.6,0,2.9,1.3,2.9,2.9c0,1.6-1.3,2.9-2.9,2.9c-0.8,0-1.5-0.3-2.1-0.8
		v0.5c0,0.1-0.1,0.2-0.2,0.2h-1.3c-0.1,0-0.2-0.1-0.2-0.2V3.2c0-0.1,0.1-0.2,0.2-0.2h1.3c0.1,0,0.2,0.1,0.2,0.2V7.7z M38.5,9.8
		c0-0.4-0.2-0.8-0.4-1.1c-0.3-0.3-0.6-0.4-1-0.4s-0.8,0.2-1,0.4c-0.3,0.3-0.4,0.7-0.4,1.1c0,0.4,0.2,0.8,0.4,1.1
		c0.3,0.3,0.6,0.4,1,0.4s0.7-0.2,1-0.4C38.3,10.6,38.5,10.2,38.5,9.8z"/>
	<path fill="#BEBEBD" d="M53.7,9.8c0,1.6-1.4,2.9-2.9,2.9c-1.5,0-2.9-1.3-2.9-2.9V7.2c0-0.1,0.1-0.2,0.2-0.2h1.3
		c0.1,0,0.2,0.1,0.2,0.2v2.4c0,0.1,0,0.2,0,0.3c0,0,0.1,0.6,0.3,0.9c0.3,0.3,0.6,0.4,0.9,0.4c0.3,0,0.7-0.2,0.9-0.4
		c0.2-0.3,0.4-0.6,0.4-1V7.2c0-0.1,0.1-0.2,0.2-0.2h1.3c0.1,0,0.2,0.1,0.2,0.2V9.8z"/>
	<path fill="#BEBEBD" d="M58.6,7.1c0.1,0,0.2,0.1,0.2,0.2v1.2c0,0.1-0.1,0.2-0.2,0.2h-1c-0.1,0-0.2,0.1-0.2,0.2v3.7
		c0,0.1-0.1,0.2-0.2,0.2H56c-0.1,0-0.2-0.1-0.2-0.2V8.7c0-0.1-0.1-0.2-0.2-0.2h-0.9c-0.1,0-0.2-0.1-0.2-0.2V7.2
		c0-0.1,0.1-0.2,0.2-0.2h0.9c0.1,0,0.2-0.1,0.2-0.2V5.2C55.8,5.1,55.9,5,56,5h1.3c0.1,0,0.2,0.1,0.2,0.2v1.8c0,0.1,0.1,0.2,0.2,0.2
		H58.6z"/>
	<path fill="#D15758" d="M44.1,6.9c-1.7,0-3.1,1.4-3.1,3c0,0.8,0.3,1.5,0.7,2c0.5,0.6,2.6,2.5,2.6,2.5s1.9-2.1,2.4-2.9
		c0.4-0.6,0.5-0.8,0.5-1.6C47.1,8.2,45.8,6.9,44.1,6.9z M45.1,11c-0.3,0.3-0.6,0.5-1,0.5c-0.4,0-0.7-0.2-1-0.5
		c-0.3-0.3-0.4-0.7-0.4-1.1c0-0.4,0.1-0.8,0.4-1.1c0.3-0.3,0.6-0.5,1-0.5c0.4,0,0.7,0.2,1,0.5c0.3,0.3,0.4,0.7,0.4,1.1
		C45.5,10.3,45.4,10.7,45.1,11z"/>
	<path fill="#BEBEBD" d="M4.3,14.5h0.3l0.6,1.5h0l0.6-1.5h0.3v1.9H6v-1.6h0l-0.7,1.6H5.2l-0.7-1.6h0v1.6H4.3V14.5z"/>
	<path fill="#BEBEBD" d="M6.6,15.2c0.1-0.1,0.1-0.1,0.2-0.1c0.1,0,0.2,0,0.3,0c0.2,0,0.3,0,0.4,0.1c0.1,0.1,0.1,0.2,0.1,0.4v0.5
		c0,0,0,0.1,0,0.1c0,0,0,0.1,0,0.1H7.4c0,0,0-0.1,0-0.1c0,0,0-0.1,0-0.1h0c0,0.1-0.1,0.1-0.2,0.2c-0.1,0-0.1,0.1-0.2,0.1
		c-0.1,0-0.1,0-0.2,0c-0.1,0-0.1,0-0.1-0.1c0,0-0.1-0.1-0.1-0.1c0,0,0-0.1,0-0.2c0-0.1,0-0.2,0.1-0.2c0.1-0.1,0.1-0.1,0.2-0.1
		c0.1,0,0.2,0,0.3-0.1c0.1,0,0.2,0,0.2,0h0.1v0c0-0.1,0-0.2-0.1-0.2c-0.1,0-0.1-0.1-0.2-0.1c-0.1,0-0.1,0-0.2,0
		c-0.1,0-0.1,0.1-0.2,0.1L6.6,15.2z M7.2,15.7c-0.1,0-0.2,0-0.3,0.1c-0.1,0-0.1,0.1-0.1,0.2c0,0.1,0,0.1,0.1,0.2c0.1,0,0.1,0,0.2,0
		c0.1,0,0.1,0,0.2,0c0,0,0.1,0,0.1-0.1c0,0,0.1-0.1,0.1-0.1c0,0,0-0.1,0-0.1v-0.1H7.2z"/>
	<path fill="#BEBEBD" d="M7.9,15.1h0.2v0.2h0c0.1-0.1,0.1-0.1,0.2-0.2c0.1,0,0.2-0.1,0.2-0.1c0.1,0,0.2,0,0.3,0
		c0.1,0,0.1,0.1,0.2,0.1c0.1,0.1,0.1,0.1,0.1,0.2c0,0.1,0,0.2,0,0.3c0,0.1,0,0.2,0,0.3c0,0.1-0.1,0.1-0.1,0.2
		c-0.1,0.1-0.1,0.1-0.2,0.1c-0.1,0-0.2,0-0.2,0c-0.1,0-0.2,0-0.3-0.1c-0.1,0-0.1-0.1-0.2-0.2h0v0.8H7.9V15.1z M8.1,15.7
		c0,0.1,0,0.1,0,0.2c0,0.1,0,0.1,0.1,0.1c0,0,0.1,0.1,0.1,0.1c0.1,0,0.1,0,0.2,0c0.1,0,0.1,0,0.2,0c0.1,0,0.1-0.1,0.1-0.1
		c0,0,0.1-0.1,0.1-0.1c0-0.1,0-0.1,0-0.2c0-0.1,0-0.1,0-0.2c0-0.1,0-0.1-0.1-0.1c0,0-0.1-0.1-0.1-0.1c-0.1,0-0.1,0-0.2,0
		c-0.1,0-0.1,0-0.2,0c-0.1,0-0.1,0.1-0.1,0.1c0,0-0.1,0.1-0.1,0.1C8.1,15.6,8.1,15.6,8.1,15.7z"/>
	<path fill="#BEBEBD" d="M9.5,16c0,0.1,0.1,0.1,0.1,0.1c0,0,0.1,0,0.2,0c0,0,0.1,0,0.1,0c0,0,0.1,0,0.1,0c0,0,0,0,0.1-0.1
		c0,0,0-0.1,0-0.1c0,0,0-0.1,0-0.1c0,0,0,0-0.1-0.1c0,0-0.1,0-0.1,0c0,0-0.1,0-0.1,0c-0.1,0-0.1,0-0.2,0c-0.1,0-0.1,0-0.1-0.1
		c0,0-0.1-0.1-0.1-0.1c0,0,0-0.1,0-0.2c0-0.1,0-0.1,0-0.2c0,0,0.1-0.1,0.1-0.1c0,0,0.1-0.1,0.1-0.1c0.1,0,0.1,0,0.2,0
		c0.1,0,0.2,0,0.2,0.1c0.1,0,0.1,0.1,0.2,0.2l-0.2,0.1c0,0-0.1-0.1-0.1-0.1c0,0-0.1,0-0.2,0c0,0-0.1,0-0.1,0c0,0-0.1,0-0.1,0
		c0,0,0,0-0.1,0.1c0,0,0,0,0,0.1c0,0,0,0,0,0.1c0,0,0,0,0.1,0c0,0,0.1,0,0.1,0c0,0,0.1,0,0.1,0c0.1,0,0.1,0,0.2,0c0,0,0.1,0,0.1,0.1
		c0,0,0.1,0.1,0.1,0.1c0,0,0,0.1,0,0.2c0,0.1,0,0.1,0,0.2c0,0-0.1,0.1-0.1,0.1c0,0-0.1,0.1-0.2,0.1c-0.1,0-0.1,0-0.2,0
		c-0.1,0-0.2,0-0.3,0c-0.1,0-0.1-0.1-0.2-0.2L9.5,16z"/>
	<path fill="#BEBEBD" d="M11.2,15.4c0-0.1,0-0.1,0-0.2c0,0,0-0.1,0-0.1h0.2c0,0,0,0.1,0,0.1c0,0,0,0.1,0,0.1h0c0,0,0-0.1,0.1-0.1
		c0,0,0.1-0.1,0.1-0.1c0,0,0.1,0,0.1-0.1c0,0,0.1,0,0.1,0c0.1,0,0.1,0,0.2,0c0,0,0.1,0,0.1,0.1c0,0,0.1,0,0.1,0.1c0,0,0,0.1,0,0.1
		c0-0.1,0.1-0.1,0.2-0.2s0.1-0.1,0.2-0.1c0.1,0,0.2,0,0.2,0c0.1,0,0.1,0.1,0.1,0.1c0,0,0.1,0.1,0.1,0.2c0,0.1,0,0.1,0,0.2v0.8h-0.2
		v-0.7c0,0,0-0.1,0-0.1c0,0,0-0.1,0-0.1c0,0-0.1-0.1-0.1-0.1c0,0-0.1,0-0.1,0c0,0-0.1,0-0.1,0c0,0-0.1,0-0.1,0.1
		c0,0-0.1,0.1-0.1,0.1s0,0.1,0,0.1v0.7H12v-0.7c0-0.1,0-0.2-0.1-0.3c0-0.1-0.1-0.1-0.2-0.1c-0.1,0-0.1,0-0.2,0c0,0-0.1,0.1-0.1,0.1
		s-0.1,0.1-0.1,0.2c0,0.1,0,0.1,0,0.2v0.6h-0.2V15.4z"/>
	<path fill="#BEBEBD" d="M13.3,15.2c0.1-0.1,0.1-0.1,0.2-0.1c0.1,0,0.2,0,0.3,0c0.2,0,0.3,0,0.4,0.1c0.1,0.1,0.1,0.2,0.1,0.4v0.5
		c0,0,0,0.1,0,0.1c0,0,0,0.1,0,0.1h-0.2c0,0,0-0.1,0-0.1c0,0,0-0.1,0-0.1h0c0,0.1-0.1,0.1-0.2,0.2c-0.1,0-0.1,0.1-0.2,0.1
		c-0.1,0-0.1,0-0.2,0c-0.1,0-0.1,0-0.1-0.1c0,0-0.1-0.1-0.1-0.1c0,0,0-0.1,0-0.2c0-0.1,0-0.2,0.1-0.2c0.1-0.1,0.1-0.1,0.2-0.1
		c0.1,0,0.2,0,0.3-0.1c0.1,0,0.2,0,0.2,0h0.1v0c0-0.1,0-0.2-0.1-0.2c-0.1,0-0.1-0.1-0.2-0.1c-0.1,0-0.1,0-0.2,0
		c-0.1,0-0.1,0.1-0.2,0.1L13.3,15.2z M13.9,15.7c-0.1,0-0.2,0-0.3,0.1c-0.1,0-0.1,0.1-0.1,0.2c0,0.1,0,0.1,0.1,0.2
		c0.1,0,0.1,0,0.2,0c0.1,0,0.1,0,0.2,0c0,0,0.1,0,0.1-0.1c0,0,0.1-0.1,0.1-0.1c0,0,0-0.1,0-0.1v-0.1H13.9z"/>
	<path fill="#BEBEBD" d="M15.7,16.1L15.7,16.1c0,0.1-0.1,0.1-0.2,0.2c-0.1,0-0.2,0.1-0.3,0.1c-0.1,0-0.2,0-0.2,0
		c-0.1,0-0.1-0.1-0.2-0.1c-0.1-0.1-0.1-0.1-0.1-0.2c0-0.1,0-0.2,0-0.3c0-0.1,0-0.2,0-0.3c0-0.1,0.1-0.1,0.1-0.2
		c0.1-0.1,0.1-0.1,0.2-0.1c0.1,0,0.2,0,0.3,0c0.1,0,0.2,0,0.2,0.1c0.1,0,0.1,0.1,0.2,0.2h0v-0.9h0.2v2h-0.2V16.1z M15.7,15.7
		c0-0.1,0-0.1,0-0.2c0-0.1,0-0.1-0.1-0.1c0,0-0.1-0.1-0.1-0.1c-0.1,0-0.1,0-0.2,0c-0.1,0-0.1,0-0.2,0c-0.1,0-0.1,0.1-0.1,0.1
		c0,0-0.1,0.1-0.1,0.1c0,0.1,0,0.1,0,0.2c0,0.1,0,0.1,0,0.2c0,0.1,0,0.1,0.1,0.1c0,0,0.1,0.1,0.1,0.1c0.1,0,0.1,0,0.2,0
		c0.1,0,0.1,0,0.2,0c0.1,0,0.1-0.1,0.1-0.1c0,0,0.1-0.1,0.1-0.1C15.7,15.8,15.7,15.8,15.7,15.7z"/>
	<path fill="#BEBEBD" d="M17.3,16.1c-0.1,0.1-0.2,0.2-0.2,0.2c-0.1,0-0.2,0.1-0.3,0.1c-0.1,0-0.2,0-0.3-0.1c-0.1,0-0.1-0.1-0.2-0.1
		c-0.1-0.1-0.1-0.1-0.1-0.2c0-0.1,0-0.2,0-0.3c0-0.1,0-0.2,0-0.3c0-0.1,0.1-0.1,0.1-0.2c0.1-0.1,0.1-0.1,0.2-0.1c0.1,0,0.2,0,0.3,0
		c0.1,0,0.2,0,0.2,0c0.1,0,0.1,0.1,0.2,0.1c0.1,0.1,0.1,0.1,0.1,0.2c0,0.1,0,0.2,0,0.3v0.1h-1c0,0.1,0,0.1,0,0.2
		c0,0,0.1,0.1,0.1,0.1c0,0,0.1,0.1,0.1,0.1c0,0,0.1,0,0.2,0c0.1,0,0.2,0,0.2,0c0.1,0,0.1-0.1,0.2-0.1L17.3,16.1z M17.1,15.6
		c0-0.1,0-0.2-0.1-0.3c-0.1-0.1-0.2-0.1-0.3-0.1s-0.2,0-0.3,0.1c-0.1,0.1-0.1,0.1-0.1,0.3H17.1z"/>
	<path fill="#BEBEBD" d="M19.4,16.1c-0.1,0.1-0.2,0.2-0.2,0.2c-0.1,0-0.2,0.1-0.3,0.1c-0.1,0-0.2,0-0.3-0.1c-0.1,0-0.1-0.1-0.2-0.1
		c-0.1-0.1-0.1-0.1-0.1-0.2c0-0.1,0-0.2,0-0.3c0-0.1,0-0.2,0-0.3c0-0.1,0.1-0.1,0.1-0.2c0.1-0.1,0.1-0.1,0.2-0.1c0.1,0,0.2,0,0.3,0
		c0.1,0,0.2,0,0.2,0c0.1,0,0.1,0.1,0.2,0.1c0.1,0.1,0.1,0.1,0.1,0.2c0,0.1,0,0.2,0,0.3v0.1h-1c0,0.1,0,0.1,0,0.2
		c0,0,0.1,0.1,0.1,0.1c0,0,0.1,0.1,0.1,0.1c0,0,0.1,0,0.2,0c0.1,0,0.2,0,0.2,0c0.1,0,0.1-0.1,0.2-0.1L19.4,16.1z M19.2,15.6
		c0-0.1,0-0.2-0.1-0.3c-0.1-0.1-0.2-0.1-0.3-0.1c-0.1,0-0.2,0-0.3,0.1c-0.1,0.1-0.1,0.1-0.1,0.3H19.2z"/>
	<path fill="#BEBEBD" d="M19.7,15.2c0.1-0.1,0.1-0.1,0.2-0.1c0.1,0,0.2,0,0.3,0c0.2,0,0.3,0,0.4,0.1c0.1,0.1,0.1,0.2,0.1,0.4v0.5
		c0,0,0,0.1,0,0.1c0,0,0,0.1,0,0.1h-0.2c0,0,0-0.1,0-0.1c0,0,0-0.1,0-0.1h0c0,0.1-0.1,0.1-0.2,0.2c-0.1,0-0.1,0.1-0.2,0.1
		c-0.1,0-0.1,0-0.2,0c-0.1,0-0.1,0-0.1-0.1c0,0-0.1-0.1-0.1-0.1c0,0,0-0.1,0-0.2c0-0.1,0-0.2,0.1-0.2c0.1-0.1,0.1-0.1,0.2-0.1
		c0.1,0,0.2,0,0.3-0.1c0.1,0,0.2,0,0.2,0h0.1v0c0-0.1,0-0.2-0.1-0.2c-0.1,0-0.1-0.1-0.2-0.1c-0.1,0-0.1,0-0.2,0
		c-0.1,0-0.1,0.1-0.2,0.1L19.7,15.2z M20.3,15.7c-0.1,0-0.2,0-0.3,0.1c-0.1,0-0.1,0.1-0.1,0.2c0,0.1,0,0.1,0.1,0.2
		c0.1,0,0.1,0,0.2,0c0.1,0,0.1,0,0.2,0c0,0,0.1,0,0.1-0.1c0,0,0.1-0.1,0.1-0.1c0,0,0-0.1,0-0.1v-0.1H20.3z"/>
	<path fill="#BEBEBD" d="M21,16c0,0.1,0.1,0.1,0.1,0.1c0,0,0.1,0,0.2,0c0,0,0.1,0,0.1,0c0,0,0.1,0,0.1,0c0,0,0,0,0.1-0.1
		c0,0,0-0.1,0-0.1c0,0,0-0.1,0-0.1c0,0,0,0-0.1-0.1c0,0-0.1,0-0.1,0c0,0-0.1,0-0.1,0c-0.1,0-0.1,0-0.2,0c-0.1,0-0.1,0-0.1-0.1
		c0,0-0.1-0.1-0.1-0.1c0,0,0-0.1,0-0.2c0-0.1,0-0.1,0-0.2c0,0,0.1-0.1,0.1-0.1c0,0,0.1-0.1,0.1-0.1c0.1,0,0.1,0,0.2,0
		c0.1,0,0.2,0,0.2,0.1c0.1,0,0.1,0.1,0.2,0.2l-0.2,0.1c0,0-0.1-0.1-0.1-0.1s-0.1,0-0.2,0c0,0-0.1,0-0.1,0c0,0-0.1,0-0.1,0
		c0,0,0,0-0.1,0.1c0,0,0,0,0,0.1c0,0,0,0,0,0.1c0,0,0,0,0.1,0c0,0,0.1,0,0.1,0c0,0,0.1,0,0.1,0c0.1,0,0.1,0,0.2,0c0,0,0.1,0,0.1,0.1
		c0,0,0.1,0.1,0.1,0.1c0,0,0,0.1,0,0.2c0,0.1,0,0.1,0,0.2c0,0-0.1,0.1-0.1,0.1c0,0-0.1,0.1-0.2,0.1c-0.1,0-0.1,0-0.2,0
		c-0.1,0-0.2,0-0.3,0c-0.1,0-0.1-0.1-0.2-0.2L21,16z"/>
	<path fill="#BEBEBD" d="M22.5,16.6c0,0.1,0,0.1-0.1,0.1c0,0,0,0.1-0.1,0.1c0,0-0.1,0.1-0.1,0.1c0,0-0.1,0-0.2,0c0,0-0.1,0-0.1,0
		c0,0-0.1,0-0.1,0l0-0.2c0,0,0,0,0.1,0c0,0,0,0,0.1,0c0.1,0,0.1,0,0.1-0.1c0,0,0.1-0.1,0.1-0.1l0.1-0.2l-0.5-1.2h0.2l0.4,1h0l0.4-1
		h0.2L22.5,16.6z"/>
	<path fill="#D15758" d="M16,7.7c0.1,0,0.2,0.1,0.1,0.1l0,4.6c0,0.1-0.1,0.2-0.2,0.2h-1c-0.1,0-0.2-0.1-0.2-0.2v-0.2
		c0-0.1-0.1-0.1-0.1-0.1c0,0-1,0.6-1.7,0.6c-1.6,0-2.8-1.3-2.8-2.8c0-1.6,1.3-2.8,2.8-2.8c0.7,0,1.3,0.2,1.8,0.7L16,7.7z M14.6,9.9
		c0-0.4-0.1-0.8-0.4-1c-0.3-0.3-0.6-0.4-1-0.4c-0.4,0-0.7,0.1-1,0.4c-0.3,0.3-0.4,0.6-0.4,1c0,0.4,0.1,0.7,0.4,1
		c0.3,0.3,0.6,0.4,1,0.4c0.4,0,0.7-0.1,1-0.4C14.5,10.7,14.6,10.3,14.6,9.9z"/>
	<path fill="#D15758" d="M44.1,11.5c-0.4,0-0.7-0.2-1-0.5c-0.3-0.3-0.4-0.7-0.4-1.1c0-0.4,0.1-0.8,0.4-1.1c0.3-0.3,0.6-0.5,1-0.5
		c0,0,0.1,0,0.1,0V6.9c0,0-0.1,0-0.1,0c-1.7,0-3.1,1.4-3.1,3c0,0.8,0.3,1.5,0.7,2c0.5,0.6,2.1,2,2.5,2.4v-2.8
		C44.2,11.5,44.1,11.5,44.1,11.5z"/>
	<path fill="#D15758" d="M46.4,11.9c0.4-0.6,0.7-1.3,0.7-2c0-1.6-1.3-3-3-3v1.5c0.4,0,0.7,0.2,0.9,0.5c0.3,0.3,0.4,0.7,0.4,1.1
		c0,0.4-0.2,0.8-0.4,1.1c-0.3,0.3-0.5,0.4-0.9,0.4v2.8c0.1,0.1,0.1,0.1,0.1,0.1S45.9,12.7,46.4,11.9z"/>
</g>
</svg>
